<?xml version="1.0" encoding="UTF-8" standalone="no"?>
<!-- Created with Inkscape (http://www.inkscape.org/) -->

<svg
   width="160mm"
   height="34mm"
   viewBox="0 0 160 34"
   version="1.1"
   id="svg5"
   inkscape:version="1.1 (c68e22c387, 2021-05-23)"
   sodipodi:docname="logo.svg"
   inkscape:export-filename="C:\Users\Edward\Desktop\Personal\Images\Wormhole\logo.png"
   inkscape:export-xdpi="182.87982"
   inkscape:export-ydpi="182.87982"
   xmlns:inkscape="http://www.inkscape.org/namespaces/inkscape"
   xmlns:sodipodi="http://sodipodi.sourceforge.net/DTD/sodipodi-0.dtd"
   xmlns="http://www.w3.org/2000/svg"
   xmlns:svg="http://www.w3.org/2000/svg">
  <sodipodi:namedview
     id="namedview7"
     pagecolor="#ffffff"
     bordercolor="#666666"
     borderopacity="1.0"
     inkscape:pageshadow="2"
     inkscape:pageopacity="0.0"
     inkscape:pagecheckerboard="0"
     inkscape:document-units="mm"
     showgrid="false"
     inkscape:zoom="1"
     inkscape:cx="455"
     inkscape:cy="242"
     inkscape:window-width="1920"
     inkscape:window-height="1000"
     inkscape:window-x="-11"
     inkscape:window-y="733"
     inkscape:window-maximized="1"
     inkscape:current-layer="layer1"
     inkscape:snap-global="true"
     inkscape:snap-bbox="true"
     inkscape:bbox-nodes="true"
     inkscape:snap-bbox-edge-midpoints="true"
     inkscape:snap-bbox-midpoints="true"
     inkscape:bbox-paths="true"
     inkscape:snap-object-midpoints="true"
     inkscape:snap-intersection-paths="true"
     inkscape:snap-midpoints="true"
     inkscape:snap-smooth-nodes="true"
     inkscape:snap-center="true"
     inkscape:snap-text-baseline="true"
     showguides="true"
     inkscape:guide-bbox="true">
    <sodipodi:guide
       position="86.189699,91.535804"
       orientation="0,-1"
       id="guide12709" />
    <sodipodi:guide
       position="168.36841,113.6429"
       orientation="1,0"
       id="guide12744" />
    <sodipodi:guide
       position="165.38348,107.32325"
       orientation="1,0"
       id="guide12746" />
  </sodipodi:namedview>
  <defs
     id="defs2" />
  <g
     inkscape:label="Layer 1"
     inkscape:groupmode="layer"
     id="layer1">
    <g
       id="g25"
       transform="matrix(0.06665644,0,0,0.06659439,-8.7481571,-7.9496735)">
      <path
         d="m 348.57147,462.84019 c 19.039,-27.371 49.441,-14.586 56.734,19.605 10.324,48.969 59.293,55.504 59.293,55.504 0,0 -35.516,32.391 -88.086,7.4805 -34.57,-16.48 -40.914,-64.027 -27.941,-82.59 z"
         id="path9" />
      <path
         d="m 421.98147,463.79019 c -5.8711,-32.773 24.625,-45.367 53.988,-26.238 41.863,27.277 81.172,-2.6523 81.172,-2.6523 0,0.004 -2.1797,48.117 -57.02,67.535 -36.086,12.883 -74.16,-16.387 -78.141,-38.645 z"
         id="path11" />
      <path
         d="m 474.64147,412.55019 c -27.281,-19.035 -14.586,-49.441 19.605,-56.641 48.969,-10.324 55.504,-59.293 55.504,-59.293 0,0 32.395,35.52 7.3867,88.086 -16.387,34.574 -63.934,40.824 -82.496,27.848 z"
         id="path13" />
      <path
         d="m 475.59147,339.14019 c -32.773,5.8711 -45.367,-24.723 -26.238,-53.988 27.277,-41.863 -2.6523,-81.172 -2.6523,-81.172 0.004,0 48.117,2.1758 67.629,57.02 12.789,36.086 -16.387,74.16 -38.738,78.141 z"
         id="path15" />
      <path
         d="m 424.35147,286.48019 c -19.035,27.375 -49.441,14.586 -56.641,-19.605 -10.324,-48.875 -59.289,-55.598 -59.289,-55.598 0,0 35.52,-32.297 88.086,-7.3867 34.57,16.477 40.82,64.121 27.844,82.59 z"
         id="path17" />
      <path
         d="m 350.94147,285.54019 c 5.8711,32.867 -24.723,45.367 -53.988,26.238 -41.867,-27.375 -81.172,2.6484 -81.172,2.6484 0,0 2.1758,-48.02 57.02,-67.531 36.086,-12.789 74.16,16.383 78.141,38.645 z"
         id="path19" />
      <path
         d="m 298.28147,336.77019 c 27.371,19.039 14.586,49.441 -19.605,56.734 -48.969,10.23 -55.598,59.293 -55.598,59.293 0,0 -32.301,-35.516 -7.3906,-88.086 16.48,-34.57 64.125,-40.914 82.594,-27.941 z"
         id="path21" />
      <path
         d="m 297.34147,410.18019 c 32.867,-5.8711 45.367,24.723 26.238,53.895 -27.375,41.957 2.6484,81.359 2.6484,81.359 0,0 -48.117,-2.2734 -67.531,-57.113 -12.883,-35.992 16.383,-74.16 38.645,-78.141 z"
         id="path23" />
    </g>
    <text
       xml:space="preserve"
       style="font-style:normal;font-weight:normal;font-size:22.4672px;line-height:1.25;font-family:sans-serif;fill:#000000;fill-opacity:1;stroke:none;stroke-width:0.263286"
       x="31.145037"
       y="24.303003"
       id="text1069"
       transform="scale(1.0058394,0.99419451)"><tspan
         sodipodi:role="line"
         id="tspan1067"
         style="font-style:normal;font-variant:normal;font-weight:normal;font-stretch:normal;font-size:22.4672px;font-family:'Berlin Sans FB';-inkscape-font-specification:'Berlin Sans FB, Normal';font-variant-ligatures:normal;font-variant-caps:normal;font-variant-numeric:normal;font-variant-east-asian:normal;stroke-width:0.263286"
         x="31.145037"
         y="24.303003">WORMHOLE</tspan></text>
  </g>
</svg>
