<?xml version="1.0" encoding="UTF-8" standalone="no"?>
<!-- Created with Inkscape (http://www.inkscape.org/) -->

<svg
   width="160mm"
   height="34mm"
   viewBox="0 0 160 34"
   version="1.1"
   id="svg5"
   xmlns="http://www.w3.org/2000/svg"
   xmlns:svg="http://www.w3.org/2000/svg">
  <defs
     id="defs2" />
  <g
     id="layer1">
    <g
       id="g25"
       transform="matrix(0.06665644,0,0,0.06659439,-8.7481571,-7.9496735)">
      <path
         d="m 348.57147,462.84019 c 19.039,-27.371 49.441,-14.586 56.734,19.605 10.324,48.969 59.293,55.504 59.293,55.504 0,0 -35.516,32.391 -88.086,7.4805 -34.57,-16.48 -40.914,-64.027 -27.941,-82.59 z"
         id="path9" />
      <path
         d="m 421.98147,463.79019 c -5.8711,-32.773 24.625,-45.367 53.988,-26.238 41.863,27.277 81.172,-2.6523 81.172,-2.6523 0,0.004 -2.1797,48.117 -57.02,67.535 -36.086,12.883 -74.16,-16.387 -78.141,-38.645 z"
         id="path11" />
      <path
         d="m 474.64147,412.55019 c -27.281,-19.035 -14.586,-49.441 19.605,-56.641 48.969,-10.324 55.504,-59.293 55.504,-59.293 0,0 32.395,35.52 7.3867,88.086 -16.387,34.574 -63.934,40.824 -82.496,27.848 z"
         id="path13" />
      <path
         d="m 475.59147,339.14019 c -32.773,5.8711 -45.367,-24.723 -26.238,-53.988 27.277,-41.863 -2.6523,-81.172 -2.6523,-81.172 0.004,0 48.117,2.1758 67.629,57.02 12.789,36.086 -16.387,74.16 -38.738,78.141 z"
         id="path15" />
      <path
         d="m 424.35147,286.48019 c -19.035,27.375 -49.441,14.586 -56.641,-19.605 -10.324,-48.875 -59.289,-55.598 -59.289,-55.598 0,0 35.52,-32.297 88.086,-7.3867 34.57,16.477 40.82,64.121 27.844,82.59 z"
         id="path17" />
      <path
         d="m 350.94147,285.54019 c 5.8711,32.867 -24.723,45.367 -53.988,26.238 -41.867,-27.375 -81.172,2.6484 -81.172,2.6484 0,0 2.1758,-48.02 57.02,-67.531 36.086,-12.789 74.16,16.383 78.141,38.645 z"
         id="path19" />
      <path
         d="m 298.28147,336.77019 c 27.371,19.039 14.586,49.441 -19.605,56.734 -48.969,10.23 -55.598,59.293 -55.598,59.293 0,0 -32.301,-35.516 -7.3906,-88.086 16.48,-34.57 64.125,-40.914 82.594,-27.941 z"
         id="path21" />
      <path
         d="m 297.34147,410.18019 c 32.867,-5.8711 45.367,24.723 26.238,53.895 -27.375,41.957 2.6484,81.359 2.6484,81.359 0,0 -48.117,-2.2734 -67.531,-57.113 -12.883,-35.992 16.383,-74.16 38.645,-78.141 z"
         id="path23" />
    </g>
    <g
       aria-label="WORMHOLE"
       transform="scale(1.0058394,0.99419451)"
       id="text1069"
       style="font-size:22.4672px;line-height:1.25;stroke-width:0.263286">
      <path
         d="m 50.529578,14.528455 q 0,0.08776 -2.194062,4.695294 -0.735011,1.601665 -2.248914,4.783056 -0.142614,0.296198 -0.296199,0.296198 h -1.974656 q -0.208436,0 -0.340079,-0.296198 -0.811804,-1.908834 -2.336677,-6.011731 -0.756951,2.018537 -2.358617,6.011731 -0.120673,0.296198 -0.329109,0.296198 h -1.963686 q -0.164555,0 -0.307169,-0.296198 -0.756952,-1.590695 -2.270855,-4.783056 -2.095329,-4.366184 -2.095329,-4.695294 0,-0.899565 0.05485,-2.709667 0.05485,-1.810101 0.05485,-2.709667 0,-0.1974657 0.274258,-0.1974657 0.197465,0 0.592397,0.032911 0.405901,0.032911 0.603367,0.032911 0.186495,0 0.559486,-0.021941 0.37299,-0.021941 0.559486,-0.021941 0.230376,0 0.230376,0.1645546 0,0.8885953 -0.109703,2.6877264 -0.09873,1.788161 -0.09873,2.676756 0,0.559486 2.216003,5.068285 0.735011,1.491962 0.800833,1.491962 0.02194,-0.01097 0.05485,-0.07679 0.131643,-0.252317 0.559485,-1.4042 0.789863,-2.139211 1.623607,-4.859848 0.03291,-0.274258 0.03291,-1.73331 0,-0.647248 -0.04388,-1.930775 -0.03291,-1.2944966 -0.03291,-1.941745 0,-0.1645547 0.230377,-0.1645547 0.208436,0 0.625308,0.032911 0.416872,0.032911 0.636278,0.032911 0.186495,0 0.559486,-0.032911 0.37299,-0.032911 0.559486,-0.032911 0.252317,0 0.252317,0.175525 0,0.6911297 -0.04388,2.0843597 -0.04388,1.382259 -0.04388,2.073389 0,1.129942 0.01097,1.371289 0.03291,0.548515 1.656517,4.815967 0.175525,0.482693 0.570456,1.382259 0.01097,0.04388 0.04388,0.07679 0.06582,0 0.778893,-1.459051 2.161151,-4.421036 2.161151,-4.991492 0,-0.899566 -0.09873,-2.687727 -0.09873,-1.7881607 -0.09873,-2.676756 0,-0.1645547 0.08776,-0.1645547 0.219406,0 0.647248,0.032911 0.438813,0.032911 0.658219,0.032911 0.197466,0 0.603367,-0.032911 0.405902,-0.032911 0.614338,-0.032911 0.230376,0 0.263287,0.1316438 0,-0.01097 0,0.3071687 0,0.8666542 0.05485,2.5889932 0.05485,1.72234 0.05485,2.588994 z"
         style="font-family:'Berlin Sans FB';-inkscape-font-specification:'Berlin Sans FB, Normal'"
         id="path1888" />
      <path
         d="m 66.820492,16.601844 q 0,3.258183 -2.084359,5.60583 -2.172122,2.435409 -5.397394,2.435409 -3.236242,0 -5.397393,-2.424439 -2.084359,-2.336676 -2.084359,-5.6168 0,-3.247212 2.1063,-5.605829 2.172121,-2.44638 5.375452,-2.44638 3.214302,0 5.386424,2.44638 2.095329,2.347646 2.095329,5.605829 z m -2.643845,-0.03291 q 0,-2.150181 -1.338378,-3.740876 -1.4042,-1.689428 -3.52147,-1.689428 -2.09533,0 -3.488559,1.711368 -1.316438,1.601666 -1.316438,3.751847 0,2.139211 1.316438,3.740877 1.393229,1.711368 3.488559,1.711368 2.12824,0 3.53244,-1.711368 1.327408,-1.601666 1.327408,-3.773788 z"
         style="font-family:'Berlin Sans FB';-inkscape-font-specification:'Berlin Sans FB, Normal'"
         id="path1890" />
      <path
         d="m 80.478528,24.215241 q 0,0.08776 -0.175525,0.08776 -0.208436,0 -0.636278,-0.03291 -0.427842,-0.03291 -0.636278,-0.03291 -0.230377,0 -0.69113,0.03291 -0.449782,0.03291 -0.680159,0.03291 -0.252317,0 -0.383961,-0.274257 -0.35105,-0.745982 -1.996597,-4.618502 -0.164554,-0.394931 -0.800833,-0.482694 -0.142614,-0.01097 -0.998298,-0.01097 -1.513903,0 -1.799131,0.04388 -0.230377,0.03291 -0.230377,0.559486 0,0.767922 0.06582,2.303766 0.07679,1.524873 0.07679,2.281825 0,0.230376 -0.219406,0.230376 -0.219406,0 -0.669189,-0.04388 -0.438812,-0.05485 -0.669189,-0.05485 -0.186495,0 -0.570456,0.03291 -0.383961,0.03291 -0.570456,0.03291 -0.274258,0 -0.274258,-0.252317 0,-1.217705 0.109703,-3.653114 0.120673,-2.446379 0.120673,-3.664084 0,-3.466619 -0.252317,-7.3939905 l -0.01097,-0.175525 q -0.01097,-0.2194062 0.460753,-0.2194062 0.943447,0 2.81937,-0.043881 1.886894,-0.054851 2.81937,-0.054851 2.43541,0 3.905431,1.1628535 1.623607,1.283526 1.623607,3.642143 0,1.623606 -0.438813,2.556083 -0.460753,0.987328 -1.711368,1.875923 -0.208436,0.142614 -0.208436,0.274258 0,0.153584 1.305467,2.918103 1.316437,2.764519 1.316437,2.940044 z m -3.005865,-9.950073 q 0,-1.985627 -1.140913,-2.654816 -0.844714,-0.493664 -3.038776,-0.493664 -1.777191,0 -1.810102,0.285228 -0.07679,0.592397 -0.07679,3.17042 v 2.09533 q 0.03291,0.02194 0.142614,0.04388 0.197466,0.02194 0.647249,0.05485 1.042179,0.05485 2.248913,0.05485 3.027807,0 3.027807,-2.556082 z"
         style="font-family:'Berlin Sans FB';-inkscape-font-specification:'Berlin Sans FB, Normal'"
         id="path1892" />
      <path
         d="m 97.394752,24.028746 q 0,0.274257 -0.274258,0.274257 -0.197466,0 -0.603367,-0.03291 -0.394932,-0.03291 -0.592397,-0.03291 -0.197466,0 -0.603367,0.03291 -0.405902,0.03291 -0.603367,0.03291 -0.274258,0 -0.274258,-0.36202 0,-1.39323 0.08776,-4.179689 0.08776,-2.786459 0.08776,-4.179689 0,-0.208436 -0.08776,-0.208436 -0.09873,0 -0.153584,0.120674 -0.559486,1.195764 -2.643845,6.384721 -0.34008,0.998299 -0.976358,2.490261 -0.07679,0.142614 -0.789863,0.142614 -1.031209,0 -1.140912,-0.186495 -0.372991,-0.888595 -1.06412,-2.490261 -0.910536,-2.172122 -2.79743,-6.472484 -0.03291,-0.07679 -0.142614,-0.153584 -0.08776,0.06582 -0.08776,0.241346 0,1.415171 0.04388,4.245511 0.05485,2.830341 0.05485,4.245511 0,0.36202 -0.274258,0.36202 -0.186495,0 -0.570456,-0.03291 -0.383961,-0.03291 -0.570456,-0.03291 -0.197466,0 -0.592397,0.03291 -0.383961,0.03291 -0.581426,0.03291 -0.274258,0 -0.274258,-0.208436 0,-1.217704 0.109703,-3.642143 0.120673,-2.43541 0.120673,-3.653114 0,-1.261586 -0.120673,-3.784758 -0.109703,-2.534142 -0.109703,-3.7957279 0,-0.208436 0.252317,-0.2413469 1.491962,-0.1974656 2.248914,-0.1974656 0.109703,0 0.307169,0.4497828 2.654815,5.8362056 4.56365,10.4217966 0.449782,1.075091 0.537545,1.075091 0.109703,0 0.471723,-0.877625 1.491963,-3.554382 4.135808,-10.5534407 0.164555,-0.4278422 0.36202,-0.4278422 0.372991,0 1.118972,0.043881 0.756952,0.043881 1.129942,0.043881 0.274258,0 0.274258,0.2632875 0,1.2615859 -0.08776,3.7957279 -0.07679,2.523172 -0.07679,3.784758 0,1.206734 0.08776,3.620203 0.09873,2.413468 0.09873,3.609233 z"
         style="font-family:'Berlin Sans FB';-inkscape-font-specification:'Berlin Sans FB, Normal'"
         id="path1894" />
      <path
         d="m 113.55402,24.050686 q 0,0.252317 -0.32911,0.252317 -0.18649,0 -0.58142,-0.03291 -0.38396,-0.03291 -0.58143,-0.03291 -0.20844,0 -0.63628,0.03291 -0.41687,0.03291 -0.62531,0.03291 -0.25231,0 -0.25231,-0.252317 0,-0.987328 0.0549,-2.961984 0.0658,-1.974656 0.0658,-2.961984 0,-0.427843 -0.25232,-0.493664 -0.32911,-0.08776 -3.79573,-0.08776 -3.45564,0 -3.79572,0.08776 -0.24135,0.06582 -0.24135,0.493664 0,0.965387 0.0549,2.907132 0.0549,1.941746 0.0549,2.907133 0,0.36202 -0.27425,0.36202 -0.20844,0 -0.62531,-0.03291 -0.41687,-0.03291 -0.62531,-0.03291 -0.19747,0 -0.5924,0.03291 -0.38396,0.03291 -0.581424,0.03291 -0.274258,0 -0.274258,-0.252317 0,-1.206734 0.109704,-3.620203 0.120673,-2.424439 0.120673,-3.631173 0,-1.272556 -0.120673,-3.817669 -0.109704,-2.556083 -0.109704,-3.8286388 0,-0.2413469 0.274258,-0.2413469 0.197464,0 0.603364,0.032911 0.4059,0.032911 0.61434,0.032911 0.19747,0 0.61434,-0.032911 0.41687,-0.032911 0.61434,-0.032911 0.25231,0 0.25231,0.1974657 0,0.943447 -0.0878,2.841311 -0.0768,1.886894 -0.0768,2.83034 0,0.307169 0.23037,0.372991 0.27426,0.09873 3.86155,0.09873 3.5105,0 3.83961,-0.09873 0.25232,-0.06582 0.25232,-0.471723 0,-0.921507 -0.0658,-2.775489 -0.0549,-1.853983 -0.0549,-2.7754894 0,-0.2194063 0.25231,-0.2194063 0.20844,0 0.60337,0.032911 0.4059,0.032911 0.61434,0.032911 0.19747,0 0.5924,-0.032911 0.39493,-0.032911 0.59239,-0.032911 0.28523,0 0.28523,0.2413469 0,1.2725558 -0.1097,3.8286388 -0.1097,2.545113 -0.1097,3.817669 0,1.206734 0.12067,3.631173 0.12067,2.413469 0.12067,3.620203 z"
         style="font-family:'Berlin Sans FB';-inkscape-font-specification:'Berlin Sans FB, Normal'"
         id="path1896" />
      <path
         d="m 130.29471,16.601844 q 0,3.258183 -2.08435,5.60583 -2.17213,2.435409 -5.3974,2.435409 -3.23624,0 -5.39739,-2.424439 -2.08436,-2.336676 -2.08436,-5.6168 0,-3.247212 2.1063,-5.605829 2.17212,-2.44638 5.37545,-2.44638 3.2143,0 5.38642,2.44638 2.09533,2.347646 2.09533,5.605829 z m -2.64384,-0.03291 q 0,-2.150181 -1.33838,-3.740876 -1.4042,-1.689428 -3.52147,-1.689428 -2.09533,0 -3.48856,1.711368 -1.31644,1.601666 -1.31644,3.751847 0,2.139211 1.31644,3.740877 1.39323,1.711368 3.48856,1.711368 2.12824,0 3.53244,-1.711368 1.32741,-1.601666 1.32741,-3.773788 z"
         style="font-family:'Berlin Sans FB';-inkscape-font-specification:'Berlin Sans FB, Normal'"
         id="path1898" />
      <path
         d="m 142.43885,21.922446 q 0,1.535843 -0.16455,2.183092 -0.0768,0.318139 -0.38396,0.318139 -0.81181,0 -2.43541,-0.09873 -1.62361,-0.08776 -2.43541,-0.08776 -0.76792,0 -2.2928,0.03291 -1.52487,0.03291 -2.29279,0.03291 -0.27426,0 -0.27426,-0.274257 0,-1.195765 0.0768,-3.609233 0.0878,-2.413469 0.0878,-3.620203 0,-1.272556 -0.12068,-3.806699 -0.1097,-2.545112 -0.1097,-3.8176682 0,-0.2413468 0.27426,-0.2413468 0.19746,0 0.60336,0.032911 0.40591,0.032911 0.61434,0.032911 0.19747,0 0.61434,-0.032911 0.41687,-0.032911 0.61434,-0.032911 0.26328,0 0.26328,0.2084359 0,1.1628531 -0.0878,3.4995291 -0.0878,2.336677 -0.0878,3.5105 0,0.570457 0,1.73331 -0.011,1.162853 -0.011,1.733309 0,2.435409 0.19746,2.435409 4.04805,0 6.11047,-0.197465 0.0987,-0.01097 0.50463,-0.07679 0.32911,-0.06582 0.50464,-0.06582 0.23037,0 0.23037,0.208436 z"
         style="font-family:'Berlin Sans FB';-inkscape-font-specification:'Berlin Sans FB, Normal'"
         id="path1900" />
      <path
         d="m 154.1003,22.097971 q 0,0.175525 -0.0878,0.504634 -0.0987,0.416872 -0.12067,0.504634 -0.0329,0.394932 -0.15358,1.151883 -0.0549,0.197466 -0.28523,0.197466 -0.10971,0 -0.41687,-0.04388 -1.34935,-0.197465 -4.17969,-0.197465 -0.80084,0 -2.41347,0.04388 -1.61264,0.04388 -2.41347,0.04388 -0.36202,0 -0.36202,-0.318139 0,-1.228675 0.13164,-3.686025 0.14262,-2.46832 0.14262,-3.696995 0,-1.250615 -0.13165,-4.662383 -0.0219,-0.877624 -0.12067,-2.6219041 l -0.011,-0.1535844 q -0.011,-0.2523172 0.28523,-0.2523172 0.76792,0 2.30376,0.043881 1.53585,0.043881 2.30377,0.043881 0.73501,0 2.19406,-0.043881 1.47002,-0.043881 2.20503,-0.043881 0.51561,0 0.55949,0.3181391 0.23038,1.4480816 0.23038,1.7991316 0,0.252317 -0.24135,0.252317 -0.93248,0 -2.83034,-0.09873 -1.8869,-0.109703 -2.84131,-0.109703 -0.89957,0 -1.14091,0.241347 -0.23038,0.241347 -0.23038,1.195764 v 1.634576 q 0,0.669189 0.0329,0.778892 0.0987,0.34008 0.57046,0.34008 0.13164,0 0.37299,-0.01097 0.25231,0 0.37299,0 2.15018,0 3.86155,-0.07679 0.66919,-0.02194 1.57972,-0.109704 0.23038,-0.02194 0.23038,0.197466 0,0.35105 -0.0878,1.075091 -0.0768,0.72404 -0.0768,1.086061 0,0.197465 -0.32911,0.197465 -0.13164,0 -0.97635,-0.07679 -0.61434,-0.06582 -2.76452,-0.06582 -1.8101,0 -2.2928,0.04388 -0.43881,0.03291 -0.50463,0.460754 0.011,-0.07679 0.011,0.844714 v 1.623606 q 0,1.140912 0.35105,1.42614 0.27426,0.230377 1.37129,0.230377 l 1.20673,-0.01097 q 0.76792,0 4.31133,-0.263288 l 0.16456,-0.01097 q 0.21941,-0.02194 0.21941,0.274258 z"
         style="font-family:'Berlin Sans FB';-inkscape-font-specification:'Berlin Sans FB, Normal'"
         id="path1902" />
    </g>
  </g>
</svg>
