<?xml version="1.0" encoding="UTF-8" standalone="no"?>
<!-- Created with Inkscape (http://www.inkscape.org/) -->

<svg
   width="160mm"
   height="40mm"
   viewBox="0 0 160 40"
   version="1.1"
   id="svg12873"
   xmlns="http://www.w3.org/2000/svg"
   xmlns:svg="http://www.w3.org/2000/svg">
  <defs
     id="defs12870" />
  <g
     id="layer1">
    <g
       id="g25"
       transform="matrix(0.06665644,0,0,0.06659439,-8.7481571,-3.5599366)">
      <path
         d="m 348.57147,462.84019 c 19.039,-27.371 49.441,-14.586 56.734,19.605 10.324,48.969 59.293,55.504 59.293,55.504 0,0 -35.516,32.391 -88.086,7.4805 -34.57,-16.48 -40.914,-64.027 -27.941,-82.59 z"
         id="path9" />
      <path
         d="m 421.98147,463.79019 c -5.8711,-32.773 24.625,-45.367 53.988,-26.238 41.863,27.277 81.172,-2.6523 81.172,-2.6523 0,0.004 -2.1797,48.117 -57.02,67.535 -36.086,12.883 -74.16,-16.387 -78.141,-38.645 z"
         id="path11" />
      <path
         d="m 474.64147,412.55019 c -27.281,-19.035 -14.586,-49.441 19.605,-56.641 48.969,-10.324 55.504,-59.293 55.504,-59.293 0,0 32.395,35.52 7.3867,88.086 -16.387,34.574 -63.934,40.824 -82.496,27.848 z"
         id="path13" />
      <path
         d="m 475.59147,339.14019 c -32.773,5.8711 -45.367,-24.723 -26.238,-53.988 27.277,-41.863 -2.6523,-81.172 -2.6523,-81.172 0.004,0 48.117,2.1758 67.629,57.02 12.789,36.086 -16.387,74.16 -38.738,78.141 z"
         id="path15" />
      <path
         d="m 424.35147,286.48019 c -19.035,27.375 -49.441,14.586 -56.641,-19.605 -10.324,-48.875 -59.289,-55.598 -59.289,-55.598 0,0 35.52,-32.297 88.086,-7.3867 34.57,16.477 40.82,64.121 27.844,82.59 z"
         id="path17" />
      <path
         d="m 350.94147,285.54019 c 5.8711,32.867 -24.723,45.367 -53.988,26.238 -41.867,-27.375 -81.172,2.6484 -81.172,2.6484 0,0 2.1758,-48.02 57.02,-67.531 36.086,-12.789 74.16,16.383 78.141,38.645 z"
         id="path19" />
      <path
         d="m 298.28147,336.77019 c 27.371,19.039 14.586,49.441 -19.605,56.734 -48.969,10.23 -55.598,59.293 -55.598,59.293 0,0 -32.301,-35.516 -7.3906,-88.086 16.48,-34.57 64.125,-40.914 82.594,-27.941 z"
         id="path21" />
      <path
         d="m 297.34147,410.18019 c 32.867,-5.8711 45.367,24.723 26.238,53.895 -27.375,41.957 2.6484,81.359 2.6484,81.359 0,0 -48.117,-2.2734 -67.531,-57.113 -12.883,-35.992 16.383,-74.16 38.645,-78.141 z"
         id="path23" />
    </g>
    <g
       aria-label="WORMHOLE"
       transform="scale(1.0058394,0.99419451)"
       id="text1069"
       style="font-size:22.4672px;line-height:1.25;stroke-width:0.263286">
      <path
         d="m 50.529584,18.943817 q 0,0.08776 -2.194062,4.695293 -0.735011,1.601666 -2.248914,4.783056 -0.142614,0.296199 -0.296199,0.296199 h -1.974656 q -0.208436,0 -0.34008,-0.296199 -0.811803,-1.908834 -2.336676,-6.011731 -0.756952,2.018538 -2.358617,6.011731 -0.120674,0.296199 -0.32911,0.296199 h -1.963686 q -0.164554,0 -0.307168,-0.296199 -0.756952,-1.590695 -2.270855,-4.783056 -2.09533,-4.366184 -2.09533,-4.695293 0,-0.899566 0.05485,-2.709668 0.05485,-1.810101 0.05485,-2.709667 0,-0.197465 0.274257,-0.197465 0.197466,0 0.592397,0.03291 0.405902,0.03291 0.603367,0.03291 0.186496,0 0.559486,-0.02194 0.372991,-0.02194 0.559486,-0.02194 0.230377,0 0.230377,0.164555 0,0.888595 -0.109703,2.687727 -0.09873,1.78816 -0.09873,2.676756 0,0.559486 2.216003,5.068284 0.735011,1.491962 0.800833,1.491962 0.02194,-0.01097 0.05485,-0.07679 0.131644,-0.252317 0.559486,-1.4042 0.789863,-2.139211 1.623606,-4.859848 0.03291,-0.274258 0.03291,-1.733309 0,-0.647249 -0.04388,-1.930775 -0.03291,-1.294497 -0.03291,-1.941746 0,-0.164554 0.230377,-0.164554 0.208436,0 0.625308,0.03291 0.416871,0.03291 0.636278,0.03291 0.186495,0 0.559486,-0.03291 0.37299,-0.03291 0.559485,-0.03291 0.252318,0 0.252318,0.175525 0,0.691129 -0.04388,2.084359 -0.04388,1.382259 -0.04388,2.073389 0,1.129942 0.01097,1.371289 0.03291,0.548516 1.656518,4.815967 0.175525,0.482694 0.570456,1.382259 0.01097,0.04388 0.04388,0.07679 0.06582,0 0.778892,-1.459052 2.161152,-4.421036 2.161152,-4.991492 0,-0.899566 -0.09873,-2.687726 -0.09873,-1.788161 -0.09873,-2.676757 0,-0.164554 0.08776,-0.164554 0.219406,0 0.647248,0.03291 0.438813,0.03291 0.658219,0.03291 0.197465,0 0.603367,-0.03291 0.405901,-0.03291 0.614337,-0.03291 0.230377,0 0.263288,0.131643 0,-0.01097 0,0.307169 0,0.866655 0.05485,2.588994 0.05485,1.722339 0.05485,2.588994 z"
         style="font-family:'Berlin Sans FB';-inkscape-font-specification:'Berlin Sans FB, Normal'"
         id="path146" />
      <path
         d="m 66.820498,21.017206 q 0,3.258182 -2.084359,5.605829 -2.172122,2.435409 -5.397394,2.435409 -3.236242,0 -5.397393,-2.424439 -2.08436,-2.336676 -2.08436,-5.616799 0,-3.247213 2.1063,-5.60583 2.172122,-2.44638 5.375453,-2.44638 3.214302,0 5.386423,2.44638 2.09533,2.347647 2.09533,5.60583 z m -2.643845,-0.03291 q 0,-2.150182 -1.338378,-3.740877 -1.4042,-1.689428 -3.52147,-1.689428 -2.09533,0 -3.48856,1.711369 -1.316437,1.601665 -1.316437,3.751847 0,2.13921 1.316437,3.740876 1.39323,1.711369 3.48856,1.711369 2.12824,0 3.53244,-1.711369 1.327408,-1.601666 1.327408,-3.773787 z"
         style="font-family:'Berlin Sans FB';-inkscape-font-specification:'Berlin Sans FB, Normal'"
         id="path148" />
      <path
         d="m 80.478534,28.630602 q 0,0.08776 -0.175525,0.08776 -0.208436,0 -0.636278,-0.03291 -0.427842,-0.03291 -0.636278,-0.03291 -0.230377,0 -0.69113,0.03291 -0.449783,0.03291 -0.680159,0.03291 -0.252317,0 -0.383961,-0.274258 -0.35105,-0.745981 -1.996597,-4.618502 -0.164555,-0.394931 -0.800833,-0.482693 -0.142614,-0.01097 -0.998298,-0.01097 -1.513903,0 -1.799131,0.04388 -0.230377,0.03291 -0.230377,0.559486 0,0.767921 0.06582,2.303765 0.07679,1.524874 0.07679,2.281825 0,0.230377 -0.219406,0.230377 -0.219406,0 -0.669189,-0.04388 -0.438813,-0.05485 -0.669189,-0.05485 -0.186496,0 -0.570457,0.03291 -0.38396,0.03291 -0.570456,0.03291 -0.274258,0 -0.274258,-0.252317 0,-1.217705 0.109704,-3.653114 0.120673,-2.44638 0.120673,-3.664085 0,-3.466618 -0.252317,-7.39399 l -0.01097,-0.175525 q -0.01097,-0.219406 0.460753,-0.219406 0.943446,0 2.81937,-0.04388 1.886894,-0.05485 2.81937,-0.05485 2.435409,0 3.905431,1.162853 1.623606,1.283526 1.623606,3.642144 0,1.623606 -0.438812,2.556082 -0.460753,0.987328 -1.711369,1.875924 -0.208436,0.142614 -0.208436,0.274258 0,0.153584 1.305467,2.918103 1.316438,2.764518 1.316438,2.940043 z m -3.005866,-9.950073 q 0,-1.985626 -1.140912,-2.654815 -0.844714,-0.493665 -3.038777,-0.493665 -1.77719,0 -1.810101,0.285229 -0.07679,0.592396 -0.07679,3.17042 v 2.095329 q 0.03291,0.02194 0.142614,0.04388 0.197465,0.02194 0.647248,0.05485 1.04218,0.05485 2.248914,0.05485 3.027806,0 3.027806,-2.556083 z"
         style="font-family:'Berlin Sans FB';-inkscape-font-specification:'Berlin Sans FB, Normal'"
         id="path150" />
      <path
         d="m 97.394757,28.444107 q 0,0.274258 -0.274257,0.274258 -0.197466,0 -0.603368,-0.03291 -0.394931,-0.03291 -0.592396,-0.03291 -0.197466,0 -0.603368,0.03291 -0.405901,0.03291 -0.603367,0.03291 -0.274258,0 -0.274258,-0.362021 0,-1.393229 0.08776,-4.179689 0.08776,-2.786459 0.08776,-4.179688 0,-0.208436 -0.08776,-0.208436 -0.09873,0 -0.153584,0.120673 -0.559486,1.195764 -2.643846,6.384722 -0.340079,0.998298 -0.976357,2.490261 -0.07679,0.142614 -0.789863,0.142614 -1.031209,0 -1.140912,-0.186496 -0.372991,-0.888595 -1.064121,-2.490261 -0.910536,-2.172121 -2.797429,-6.472484 -0.03291,-0.07679 -0.142614,-0.153584 -0.08776,0.06582 -0.08776,0.241347 0,1.41517 0.04388,4.245511 0.05485,2.83034 0.05485,4.24551 0,0.362021 -0.274258,0.362021 -0.186495,0 -0.570456,-0.03291 -0.383961,-0.03291 -0.570456,-0.03291 -0.197466,0 -0.592397,0.03291 -0.383961,0.03291 -0.581427,0.03291 -0.274258,0 -0.274258,-0.208436 0,-1.217705 0.109704,-3.642144 0.120673,-2.435409 0.120673,-3.653114 0,-1.261586 -0.120673,-3.784758 -0.109704,-2.534142 -0.109704,-3.795728 0,-0.208435 0.252318,-0.241346 1.491962,-0.197466 2.248914,-0.197466 0.109703,0 0.307168,0.449783 2.654816,5.836206 4.56365,10.421796 0.449783,1.075091 0.537546,1.075091 0.109703,0 0.471723,-0.877625 1.491962,-3.554381 4.135808,-10.55344 0.164554,-0.427843 0.36202,-0.427843 0.372991,0 1.118972,0.04388 0.756951,0.04388 1.129942,0.04388 0.274258,0 0.274258,0.263287 0,1.261586 -0.08776,3.795728 -0.07679,2.523172 -0.07679,3.784758 0,1.206735 0.08776,3.620203 0.09873,2.413469 0.09873,3.609233 z"
         style="font-family:'Berlin Sans FB';-inkscape-font-specification:'Berlin Sans FB, Normal'"
         id="path152" />
      <path
         d="m 113.55403,28.466048 q 0,0.252317 -0.32911,0.252317 -0.1865,0 -0.58143,-0.03291 -0.38396,-0.03291 -0.58142,-0.03291 -0.20844,0 -0.63628,0.03291 -0.41687,0.03291 -0.62531,0.03291 -0.25232,0 -0.25232,-0.252317 0,-0.987329 0.0549,-2.961985 0.0658,-1.974656 0.0658,-2.961984 0,-0.427842 -0.25232,-0.493664 -0.32911,-0.08776 -3.79573,-0.08776 -3.45565,0 -3.79573,0.08776 -0.24134,0.06582 -0.24134,0.493664 0,0.965387 0.0549,2.907133 0.0549,1.941745 0.0549,2.907132 0,0.362021 -0.27426,0.362021 -0.20843,0 -0.62531,-0.03291 -0.41687,-0.03291 -0.6253,-0.03291 -0.19747,0 -0.5924,0.03291 -0.38396,0.03291 -0.581428,0.03291 -0.274258,0 -0.274258,-0.252317 0,-1.206735 0.109703,-3.620203 0.120674,-2.424439 0.120674,-3.631174 0,-1.272556 -0.120674,-3.817668 -0.109703,-2.556083 -0.109703,-3.828639 0,-0.241347 0.274258,-0.241347 0.197468,0 0.603368,0.03291 0.4059,0.03291 0.61434,0.03291 0.19746,0 0.61433,-0.03291 0.41688,-0.03291 0.61434,-0.03291 0.25232,0 0.25232,0.197465 0,0.943447 -0.0878,2.841311 -0.0768,1.886894 -0.0768,2.830341 0,0.307168 0.23038,0.37299 0.27426,0.09873 3.86155,0.09873 3.5105,0 3.83961,-0.09873 0.25232,-0.06582 0.25232,-0.471723 0,-0.921506 -0.0658,-2.775489 -0.0549,-1.853983 -0.0549,-2.775489 0,-0.219406 0.25232,-0.219406 0.20844,0 0.60337,0.03291 0.4059,0.03291 0.61434,0.03291 0.19746,0 0.59239,-0.03291 0.39493,-0.03291 0.5924,-0.03291 0.28523,0 0.28523,0.241347 0,1.272556 -0.10971,3.828639 -0.1097,2.545112 -0.1097,3.817668 0,1.206735 0.12067,3.631174 0.12068,2.413468 0.12068,3.620203 z"
         style="font-family:'Berlin Sans FB';-inkscape-font-specification:'Berlin Sans FB, Normal'"
         id="path154" />
      <path
         d="m 130.29472,21.017206 q 0,3.258182 -2.08436,5.605829 -2.17212,2.435409 -5.39739,2.435409 -3.23624,0 -5.3974,-2.424439 -2.08436,-2.336676 -2.08436,-5.616799 0,-3.247213 2.1063,-5.60583 2.17213,-2.44638 5.37546,-2.44638 3.2143,0 5.38642,2.44638 2.09533,2.347647 2.09533,5.60583 z m -2.64384,-0.03291 q 0,-2.150182 -1.33838,-3.740877 -1.4042,-1.689428 -3.52147,-1.689428 -2.09533,0 -3.48856,1.711369 -1.31644,1.601665 -1.31644,3.751847 0,2.13921 1.31644,3.740876 1.39323,1.711369 3.48856,1.711369 2.12824,0 3.53244,-1.711369 1.32741,-1.601666 1.32741,-3.773787 z"
         style="font-family:'Berlin Sans FB';-inkscape-font-specification:'Berlin Sans FB, Normal'"
         id="path156" />
      <path
         d="m 142.43886,26.337807 q 0,1.535844 -0.16456,2.183092 -0.0768,0.318139 -0.38396,0.318139 -0.8118,0 -2.43541,-0.09873 -1.6236,-0.08776 -2.43541,-0.08776 -0.76792,0 -2.29279,0.03291 -1.52487,0.03291 -2.2928,0.03291 -0.27425,0 -0.27425,-0.274258 0,-1.195764 0.0768,-3.609233 0.0878,-2.413468 0.0878,-3.620203 0,-1.272556 -0.12067,-3.806698 -0.10971,-2.545113 -0.10971,-3.817669 0,-0.241347 0.27426,-0.241347 0.19747,0 0.60337,0.03291 0.4059,0.03291 0.61434,0.03291 0.19746,0 0.61433,-0.03291 0.41688,-0.03291 0.61434,-0.03291 0.26329,0 0.26329,0.208436 0,1.162853 -0.0878,3.49953 -0.0878,2.336676 -0.0878,3.5105 0,0.570456 0,1.733309 -0.011,1.162853 -0.011,1.733309 0,2.43541 0.19747,2.43541 4.04804,0 6.11046,-0.197466 0.0987,-0.01097 0.50464,-0.07679 0.32911,-0.06582 0.50463,-0.06582 0.23038,0 0.23038,0.208436 z"
         style="font-family:'Berlin Sans FB';-inkscape-font-specification:'Berlin Sans FB, Normal'"
         id="path158" />
      <path
         d="m 154.1003,26.513332 q 0,0.175525 -0.0878,0.504634 -0.0987,0.416872 -0.12067,0.504635 -0.0329,0.394931 -0.15359,1.151882 -0.0549,0.197466 -0.28523,0.197466 -0.1097,0 -0.41687,-0.04388 -1.34935,-0.197466 -4.17969,-0.197466 -0.80083,0 -2.41347,0.04388 -1.61263,0.04388 -2.41347,0.04388 -0.36202,0 -0.36202,-0.318139 0,-1.228675 0.13165,-3.686025 0.14261,-2.46832 0.14261,-3.696995 0,-1.250616 -0.13164,-4.662383 -0.0219,-0.877625 -0.12067,-2.621905 l -0.011,-0.153584 q -0.011,-0.252317 0.28523,-0.252317 0.76792,0 2.30377,0.04388 1.53584,0.04388 2.30376,0.04388 0.73501,0 2.19407,-0.04388 1.47002,-0.04388 2.20503,-0.04388 0.5156,0 0.55949,0.318139 0.23037,1.448081 0.23037,1.799131 0,0.252317 -0.24135,0.252317 -0.93247,0 -2.83034,-0.09873 -1.88689,-0.109703 -2.84131,-0.109703 -0.89956,0 -1.14091,0.241347 -0.23038,0.241347 -0.23038,1.195764 v 1.634577 q 0,0.669189 0.0329,0.778892 0.0987,0.340079 0.57045,0.340079 0.13165,0 0.37299,-0.01097 0.25232,0 0.37299,0 2.15018,0 3.86155,-0.07679 0.66919,-0.02194 1.57973,-0.109703 0.23037,-0.02194 0.23037,0.197465 0,0.35105 -0.0878,1.075091 -0.0768,0.724041 -0.0768,1.086061 0,0.197466 -0.32911,0.197466 -0.13164,0 -0.97636,-0.07679 -0.61434,-0.06582 -2.76452,-0.06582 -1.8101,0 -2.29279,0.04388 -0.43881,0.03291 -0.50464,0.460753 0.011,-0.07679 0.011,0.844714 v 1.623606 q 0,1.140913 0.35105,1.426141 0.27426,0.230376 1.37129,0.230376 l 1.20674,-0.01097 q 0.76792,0 4.31133,-0.263288 l 0.16456,-0.01097 q 0.2194,-0.02194 0.2194,0.274258 z"
         style="font-family:'Berlin Sans FB';-inkscape-font-specification:'Berlin Sans FB, Normal'"
         id="path160" />
    </g>
    <g
       aria-label="POWERED BY:"
       id="text14000"
       style="font-size:8.46667px;line-height:1.25;stroke-width:0.264583">
      <path
         d="m 36.696513,7.2778983 q 0,0.9715173 -0.525033,1.5544277 -0.541569,0.5994468 -1.500684,0.5994468 -0.235645,0 -0.715202,-0.016536 -0.475424,-0.020671 -0.715202,-0.020671 -0.132292,0 -0.132292,0.1694988 0,0.2191081 0.02481,0.6573244 0.02894,0.438216 0.02894,0.657325 0,0.07028 -0.07855,0.07028 -0.08682,0 -0.264583,-0.01654 -0.173633,-0.02067 -0.260449,-0.02067 -0.07441,0 -0.219109,0.0124 -0.144694,0.0124 -0.214974,0.0124 -0.103353,0 -0.103353,-0.128157 0,-0.450619 0.03721,-1.3601247 0.04134,-0.9095056 0.04134,-1.3642583 0,-1.2898443 -0.09508,-2.7698579 l -0.0041,-0.062012 q -0.0041,-0.09095 0.107487,-0.09095 0.223242,0 0.669727,0.00413 0.450618,0.00413 0.677995,0.00413 0.194303,0 0.58291,-0.016536 0.388607,-0.016536 0.582911,-0.016536 0.913639,0 1.500684,0.6201174 0.574642,0.6077151 0.574642,1.5213548 z M 35.654716,7.33991 q 0,-0.6201174 -0.334864,-0.9921879 -0.347266,-0.3886069 -0.959115,-0.3886069 -0.190169,0 -0.677995,0.033073 -0.558106,0.033073 -0.574642,0.066146 -0.02894,0.049609 -0.02894,1.422136 0,0.1736329 0.0083,0.5208986 0.0124,0.3472658 0.0124,0.5208987 0,0.037207 0.09095,0.057878 0.227377,0.045475 1.260906,0.045475 0.578776,0 0.901237,-0.3596681 0.301791,-0.3431317 0.301791,-0.9260421 z"
         style="font-family:'Berlin Sans FB';-inkscape-font-specification:'Berlin Sans FB'"
         id="path125" />
      <path
         d="m 42.757127,8.0344416 q 0,1.2278325 -0.785482,2.1125334 -0.818555,0.917774 -2.033985,0.917774 -1.219564,0 -2.033985,-0.91364 -0.785482,-0.8805667 -0.785482,-2.1166674 0,-1.2236984 0.79375,-2.1125334 0.818555,-0.921908 2.025717,-0.921908 1.211296,0 2.029851,0.921908 0.789616,0.8847008 0.789616,2.1125334 z m -0.996322,-0.012402 q 0,-0.8102868 -0.504362,-1.4097336 -0.529167,-0.6366539 -1.327051,-0.6366539 -0.789616,0 -1.314649,0.6449221 -0.496094,0.603581 -0.496094,1.4138678 0,0.8061526 0.496094,1.4097336 0.525033,0.6449218 1.314649,0.6449218 0.802018,0 1.331185,-0.6449218 0.500228,-0.603581 0.500228,-1.422136 z"
         style="font-family:'Berlin Sans FB';-inkscape-font-specification:'Berlin Sans FB'"
         id="path127" />
      <path
         d="m 50.310158,7.2530936 q 0,0.033073 -0.826823,1.7694017 -0.276986,0.603581 -0.847494,1.8024747 -0.05374,0.111621 -0.111621,0.111621 h -0.744141 q -0.07855,0 -0.128158,-0.111621 -0.305924,-0.719336 -0.880566,-2.2654957 -0.285254,0.7606774 -0.888835,2.2654957 -0.04548,0.111621 -0.124024,0.111621 h -0.740007 q -0.06201,0 -0.115755,-0.111621 -0.285254,-0.599447 -0.855762,-1.8024747 -0.789616,-1.6453782 -0.789616,-1.7694017 0,-0.3389975 0.02067,-1.0211267 0.02067,-0.6821292 0.02067,-1.0211267 0,-0.074414 0.103353,-0.074414 0.07441,0 0.223242,0.012402 0.152962,0.012402 0.227376,0.012402 0.07028,0 0.21084,-0.00827 0.14056,-0.00827 0.21084,-0.00827 0.08682,0 0.08682,0.062012 0,0.3348634 -0.04134,1.0128584 -0.03721,0.673861 -0.03721,1.0087244 0,0.2108399 0.835091,1.9099617 0.276986,0.5622398 0.301791,0.5622398 0.0083,-0.00413 0.02067,-0.028939 0.04961,-0.095085 0.21084,-0.5291669 0.297656,-0.8061527 0.611849,-1.8314135 0.0124,-0.1033529 0.0124,-0.6531903 0,-0.2439129 -0.01654,-0.7276045 -0.0124,-0.4878257 -0.0124,-0.7317386 0,-0.062012 0.08682,-0.062012 0.07855,0 0.235645,0.012402 0.157096,0.012402 0.239779,0.012402 0.07028,0 0.210839,-0.012402 0.14056,-0.012402 0.21084,-0.012402 0.09508,0 0.09508,0.066146 0,0.2604494 -0.01654,0.7854821 -0.01654,0.5208987 -0.01654,0.781348 0,0.425814 0.0041,0.5167645 0.0124,0.2067058 0.624252,1.814877 0.06615,0.1819012 0.214974,0.5208987 0.0041,0.016537 0.01654,0.028939 0.02481,0 0.293523,-0.5498375 0.81442,-1.6660488 0.81442,-1.8810228 0,-0.3389976 -0.03721,-1.0128585 -0.03721,-0.673861 -0.03721,-1.0087244 0,-0.062012 0.03307,-0.062012 0.08268,0 0.243913,0.012402 0.165365,0.012402 0.248047,0.012402 0.07441,0 0.227377,-0.012402 0.152962,-0.012402 0.23151,-0.012402 0.08682,0 0.09922,0.049609 0,-0.00413 0,0.1157552 0,0.3265952 0.02067,0.9756515 0.02067,0.6490562 0.02067,0.9756514 z"
         style="font-family:'Berlin Sans FB';-inkscape-font-specification:'Berlin Sans FB'"
         id="path129" />
      <path
         d="m 54.903161,10.105634 q 0,0.06615 -0.03307,0.190169 -0.03721,0.157097 -0.04548,0.190169 -0.0124,0.148829 -0.05788,0.434083 -0.02067,0.07441 -0.107487,0.07441 -0.04134,0 -0.157096,-0.01654 -0.508497,-0.07441 -1.575099,-0.07441 -0.30179,0 -0.909505,0.01654 -0.607715,0.01654 -0.909506,0.01654 -0.136426,0 -0.136426,-0.119889 0,-0.463021 0.04961,-1.3890633 0.05374,-0.9301761 0.05374,-1.3931971 0,-0.4712893 -0.04961,-1.7569994 -0.0083,-0.3307293 -0.04547,-0.9880538 l -0.0041,-0.057878 q -0.0041,-0.095085 0.107487,-0.095085 0.289389,0 0.868165,0.016536 0.578776,0.016536 0.868164,0.016536 0.276986,0 0.826823,-0.016536 0.553972,-0.016536 0.830958,-0.016536 0.194303,0 0.21084,0.1198894 0.08682,0.5457033 0.08682,0.677995 0,0.095085 -0.09095,0.095085 -0.3514,0 -1.066602,-0.037207 -0.711068,-0.041341 -1.070736,-0.041341 -0.338998,0 -0.429949,0.09095 -0.08682,0.090951 -0.08682,0.4506187 v 0.6159833 q 0,0.2521811 0.0124,0.2935223 0.03721,0.1281576 0.214974,0.1281576 0.04961,0 0.14056,-0.00413 0.09508,0 0.14056,0 0.810287,0 1.455209,-0.028939 0.252181,-0.00827 0.595313,-0.041341 0.08682,-0.00827 0.08682,0.074414 0,0.1322917 -0.03307,0.4051434 -0.02894,0.2728516 -0.02894,0.4092775 0,0.074414 -0.124024,0.074414 -0.04961,0 -0.367936,-0.028939 -0.231511,-0.024805 -1.041797,-0.024805 -0.68213,0 -0.864031,0.016536 -0.165364,0.012402 -0.190169,0.1736329 0.0041,-0.028939 0.0041,0.318327 v 0.6118492 q 0,0.429948 0.132292,0.5374346 0.103353,0.08682 0.516764,0.08682 l 0.454753,-0.0041 q 0.289388,0 1.624708,-0.09922 l 0.06201,-0.0041 q 0.08268,-0.00827 0.08268,0.103353 z"
         style="font-family:'Berlin Sans FB';-inkscape-font-specification:'Berlin Sans FB'"
         id="path131" />
      <path
         d="m 60.012928,10.903518 q 0,0.03307 -0.06615,0.03307 -0.07855,0 -0.239779,-0.0124 -0.16123,-0.0124 -0.239778,-0.0124 -0.08682,0 -0.26045,0.0124 -0.169498,0.0124 -0.256315,0.0124 -0.09508,0 -0.144694,-0.103353 -0.132292,-0.28112 -0.752409,-1.7404627 -0.06201,-0.1488282 -0.301791,-0.1819011 -0.05374,-0.00413 -0.376204,-0.00413 -0.570508,0 -0.677995,0.016536 -0.08682,0.012402 -0.08682,0.21084 0,0.2893881 0.0248,0.8681645 0.02894,0.574642 0.02894,0.859896 0,0.08682 -0.08268,0.08682 -0.08268,0 -0.252182,-0.01654 -0.165364,-0.02067 -0.252181,-0.02067 -0.07028,0 -0.214974,0.0124 -0.144694,0.0124 -0.214974,0.0124 -0.103353,0 -0.103353,-0.09508 0,-0.458886 0.04134,-1.3766602 0.04547,-0.9219079 0.04547,-1.3807948 0,-1.3063808 -0.09508,-2.7863944 l -0.0041,-0.066146 q -0.0041,-0.082682 0.173633,-0.082682 0.355534,0 1.062468,-0.016536 0.711068,-0.020671 1.062468,-0.020671 0.917773,0 1.471745,0.4382163 0.611849,0.4836916 0.611849,1.3725266 0,0.6118492 -0.165364,0.9632491 -0.173633,0.3720704 -0.644923,0.7069338 -0.07855,0.053744 -0.07855,0.103353 0,0.057878 0.49196,1.0996749 0.496094,1.0417969 0.496094,1.1079429 z M 58.88018,7.1538748 q 0,-0.748275 -0.429948,-1.0004561 -0.318327,-0.1860353 -1.14515,-0.1860353 -0.669727,0 -0.682129,0.1074871 -0.02894,0.2232422 -0.02894,1.1947596 v 0.7896162 q 0.0124,0.00827 0.05374,0.016536 0.07442,0.00827 0.243913,0.020671 0.392741,0.020671 0.847494,0.020671 1.141016,0 1.141016,-0.9632491 z"
         style="font-family:'Berlin Sans FB';-inkscape-font-specification:'Berlin Sans FB'"
         id="path133" />
      <path
         d="m 64.490176,10.105634 q 0,0.06615 -0.03307,0.190169 -0.03721,0.157097 -0.04548,0.190169 -0.0124,0.148829 -0.05788,0.434083 -0.02067,0.07441 -0.107487,0.07441 -0.04134,0 -0.157096,-0.01654 -0.508497,-0.07441 -1.575099,-0.07441 -0.30179,0 -0.909505,0.01654 -0.607715,0.01654 -0.909506,0.01654 -0.136426,0 -0.136426,-0.119889 0,-0.463021 0.04961,-1.3890633 0.05374,-0.9301761 0.05374,-1.3931971 0,-0.4712893 -0.04961,-1.7569994 -0.0083,-0.3307293 -0.04548,-0.9880538 l -0.0041,-0.057878 q -0.0041,-0.095085 0.107487,-0.095085 0.289388,0 0.868164,0.016536 0.578776,0.016536 0.868164,0.016536 0.276986,0 0.826824,-0.016536 0.553971,-0.016536 0.830957,-0.016536 0.194303,0 0.21084,0.1198894 0.08682,0.5457033 0.08682,0.677995 0,0.095085 -0.09095,0.095085 -0.3514,0 -1.066602,-0.037207 -0.711068,-0.041341 -1.070736,-0.041341 -0.338998,0 -0.429948,0.09095 -0.08682,0.090951 -0.08682,0.4506187 v 0.6159833 q 0,0.2521811 0.0124,0.2935223 0.03721,0.1281576 0.214974,0.1281576 0.04961,0 0.14056,-0.00413 0.09508,0 0.140559,0 0.810287,0 1.455209,-0.028939 0.252181,-0.00827 0.595313,-0.041341 0.08682,-0.00827 0.08682,0.074414 0,0.1322917 -0.03307,0.4051434 -0.02894,0.2728516 -0.02894,0.4092775 0,0.074414 -0.124024,0.074414 -0.04961,0 -0.367936,-0.028939 -0.231511,-0.024805 -1.041797,-0.024805 -0.682129,0 -0.864031,0.016536 -0.165364,0.012402 -0.190169,0.1736329 0.0041,-0.028939 0.0041,0.318327 v 0.6118492 q 0,0.429948 0.132292,0.5374346 0.103353,0.08682 0.516764,0.08682 l 0.454753,-0.0041 q 0.289388,0 1.624708,-0.09922 l 0.06201,-0.0041 q 0.08268,-0.00827 0.08268,0.103353 z"
         style="font-family:'Berlin Sans FB';-inkscape-font-specification:'Berlin Sans FB'"
         id="path135" />
      <path
         d="m 70.220061,8.0055027 q 0,1.1616867 -0.661459,2.0091803 -0.719336,0.921908 -1.843816,0.921908 -0.214974,0 -0.649056,-0.01654 -0.429948,-0.01654 -0.644922,-0.01654 -0.194304,0 -0.587045,0.01654 -0.388607,0.01654 -0.58291,0.01654 -0.103353,0 -0.103353,-0.103353 0,-0.450618 0.03307,-1.360124 0.03721,-0.9095056 0.03721,-1.3642584 0,-0.4795574 -0.03307,-1.4428065 -0.03307,-0.9632491 -0.03307,-1.4428066 0,-0.086816 0.107487,-0.086816 0.152962,0 0.454753,0.00413 0.305925,0.00413 0.458887,0.00413 0.14056,0 0.429948,-0.00413 0.289388,-0.00413 0.438216,-0.00413 1.434539,0 2.137338,0.5415692 0.504363,0.3886069 0.781348,1.0459314 0.26045,0.6118492 0.26045,1.281576 z m -1.012859,0 q 0,-0.8929691 -0.508496,-1.4552089 -0.529167,-0.5829104 -1.413868,-0.5829104 -0.731738,0 -0.591179,-0.00827 -0.483691,0.024805 -0.483691,0.177767 0,0.318327 -0.01654,0.9549809 -0.0124,0.6325197 -0.0124,0.9508467 0,0.3141928 0.0124,0.9425785 0.01654,0.6283857 0.01654,0.9425785 0,0.1570962 0.496094,0.1819012 -0.06615,-0.0041 0.603581,-0.0041 0.475423,0 0.756543,-0.09922 0.347266,-0.1240235 0.624252,-0.4588869 0.516764,-0.6283857 0.516764,-1.5420254 z"
         style="font-family:'Berlin Sans FB';-inkscape-font-specification:'Berlin Sans FB'"
         id="path137" />
      <path
         d="m 77.471301,9.1506529 q 0,0.7193363 -0.434082,1.2361011 -0.458887,0.541569 -1.165821,0.541569 -0.264583,0 -0.797884,-0.0124 -0.529167,-0.0124 -0.793751,-0.0124 -0.194303,0 -0.587044,0.01654 -0.388607,0.01654 -0.58291,0.01654 -0.103353,0 -0.103353,-0.09508 0,-0.454752 0.04134,-1.3642579 0.04547,-0.9136397 0.04547,-1.3683925 0,-0.4795574 -0.04547,-1.4386724 -0.04134,-0.9632491 -0.04134,-1.4428066 0,-0.09095 0.103353,-0.09095 0.367936,0 1.107943,0.00413 0.740007,0.00413 1.112077,0.00413 0.868164,0 1.384929,0.3224611 0.628386,0.392741 0.628386,1.2195643 0,0.285254 -0.165365,0.5953127 -0.165365,0.3059246 -0.401009,0.463021 -0.11989,0.078548 -0.11989,0.1033529 0,0.024805 0.11989,0.090951 0.314192,0.1736329 0.504362,0.5126304 0.190169,0.3348634 0.190169,0.6986656 z M 76.309615,6.7776702 q 0,-0.5829104 -0.520899,-0.7854821 -0.314193,-0.1198893 -1.029395,-0.1198893 -0.694532,0 -0.694532,0.1033529 0,0.1364258 -0.0124,0.4092775 -0.0124,0.2728517 -0.0124,0.4134116 0,0.095085 0.0041,0.2935223 0.0041,0.1984375 0.0041,0.2976563 0,0.1198894 0.93431,0.1198894 1.327052,0 1.327052,-0.7317386 z m 0.111621,2.3316416 q 0,-0.5043622 -0.450619,-0.6821292 -0.285254,-0.1157553 -0.888835,-0.1157553 -1.041797,0 -1.041797,0.1116212 v 0.677995 q 0,0.1488282 0.0083,0.4547528 0.0083,0.3059246 0.0083,0.4588867 0,0.04134 0.264584,0.06201 0.264583,0.02067 0.785482,0.02067 0.65319,0 0.938444,-0.1694992 0.376205,-0.2232423 0.376205,-0.818555 z"
         style="font-family:'Berlin Sans FB';-inkscape-font-specification:'Berlin Sans FB'"
         id="path139" />
      <path
         d="m 82.589337,6.6949879 q 0,0.2356446 -0.735872,1.2485031 -0.487826,0.6325198 -0.971518,1.2650396 -0.119889,0.1570964 -0.119889,0.322461 0,0.2232423 0.02067,0.6697264 0.0248,0.442351 0.0248,0.661459 0,0.07441 -0.103353,0.07441 h -0.983919 q -0.08268,0 -0.08268,-0.119889 0,-0.21084 0.02894,-0.640788 0.02894,-0.4299483 0.02894,-0.6449224 0,-0.1860352 -0.103353,-0.3307293 Q 79.294447,8.8157895 78.703268,8.0427098 78.198906,7.3523124 77.975664,6.9926443 77.90125,6.8686208 77.90125,6.7528655 q -0.0083,-0.5208986 -0.0083,-1.5048183 0,-0.1116211 0.09922,-0.1116211 0.07028,0 0.206706,0.012402 0.14056,0.012402 0.21084,0.012402 0.08268,0 0.248047,-0.012402 0.165364,-0.012402 0.252181,-0.012402 0.07441,0 0.07441,0.066146 0,0.2315105 -0.02481,0.6945316 -0.0248,0.463021 -0.0248,0.6945315 0,0.248047 1.310514,1.744597 0.310059,-0.3513998 0.711068,-0.8722985 0.558106,-0.7193362 0.558106,-0.8640303 0,-0.2232423 -0.03307,-0.6738609 -0.03307,-0.4547528 -0.03307,-0.6779951 0,-0.1116211 0.09508,-0.1116211 0.07441,0 0.227376,0.012402 0.152963,0.012402 0.227377,0.012402 0.07855,0 0.235644,-0.012402 0.161231,-0.012402 0.239779,-0.012402 0.09922,0 0.09922,0.1364258 0,0.2356446 0.0083,0.711068 0.0083,0.4754234 0.0083,0.711068 z"
         style="font-family:'Berlin Sans FB';-inkscape-font-specification:'Berlin Sans FB'"
         id="path141" />
      <path
         d="m 84.123094,8.1832697 q 0,0.248047 -0.165364,0.4175458 -0.165365,0.1694987 -0.409278,0.1694987 -0.235644,0 -0.392741,-0.1736328 -0.157096,-0.1736329 -0.157096,-0.4134117 0,-0.2439128 0.157096,-0.4175457 0.157097,-0.1736329 0.40101,-0.1736329 0.239778,0 0.401009,0.1736329 0.165364,0.1736329 0.165364,0.4175457 z m 0,2.2117523 q 0,0.243913 -0.165364,0.425814 -0.161231,0.181901 -0.401009,0.181901 -0.243913,0 -0.40101,-0.181901 -0.157096,-0.181901 -0.157096,-0.425814 0,-0.260449 0.152962,-0.425814 0.157097,-0.1653647 0.413412,-0.1653647 0.243913,0 0.401009,0.1736329 0.157096,0.1694988 0.157096,0.4175458 z"
         style="font-family:'Berlin Sans FB';-inkscape-font-specification:'Berlin Sans FB'"
         id="path143" />
    </g>
    <g
       id="text20474"
       style="font-size:5.64444px;line-height:1.25;stroke-width:0.264583" />
    <g
       id="text32946"
       style="font-size:10.5833px;line-height:1.25;stroke-width:0.264583" />
    <g
       aria-label="REAL-TIME VIDEO STREAMING ENGINE"
       id="text42484"
       style="font-size:5.64444px;line-height:1.25;font-family:'Berlin Sans FB';-inkscape-font-specification:'Berlin Sans FB, Normal';stroke-width:0.264583">
      <path
         d="m 62.809462,35.12719 q 0,0.02205 -0.0441,0.02205 -0.05237,0 -0.159852,-0.0083 -0.107487,-0.0083 -0.159853,-0.0083 -0.05788,0 -0.173632,0.0083 -0.112999,0.0083 -0.170877,0.0083 -0.06339,0 -0.09646,-0.0689 -0.08819,-0.187413 -0.501606,-1.160308 -0.04134,-0.09922 -0.201193,-0.121267 -0.03583,-0.0028 -0.250803,-0.0028 -0.380338,0 -0.451996,0.01102 -0.05788,0.0083 -0.05788,0.14056 0,0.192925 0.01654,0.578776 0.01929,0.383094 0.01929,0.573263 0,0.05788 -0.05512,0.05788 -0.05512,0 -0.168121,-0.01102 -0.110243,-0.01378 -0.16812,-0.01378 -0.04685,0 -0.143316,0.0083 -0.09646,0.0083 -0.143316,0.0083 -0.0689,0 -0.0689,-0.06339 0,-0.305924 0.02756,-0.917773 0.03032,-0.614604 0.03032,-0.920529 0,-0.870919 -0.06339,-1.857594 l -0.0028,-0.0441 q -0.0028,-0.05512 0.115755,-0.05512 0.237022,0 0.708311,-0.01103 0.474045,-0.01378 0.708311,-0.01378 0.611849,0 0.981163,0.292144 0.407899,0.32246 0.407899,0.915016 0,0.407899 -0.110243,0.642166 -0.115756,0.248046 -0.429948,0.471288 -0.05236,0.03583 -0.05236,0.0689 0,0.03859 0.327972,0.733116 0.330729,0.694531 0.330729,0.738628 z m -0.755164,-2.499759 q 0,-0.49885 -0.286632,-0.66697 -0.212218,-0.124024 -0.763432,-0.124024 -0.446484,0 -0.454753,0.07166 -0.01929,0.148828 -0.01929,0.796506 v 0.52641 q 0.0083,0.0055 0.03583,0.01102 0.04961,0.0055 0.162608,0.01378 0.261827,0.01378 0.564995,0.01378 0.760677,0 0.760677,-0.642165 z"
         id="path64" />
      <path
         d="m 65.794291,34.595268 q 0,0.0441 -0.02205,0.126779 -0.0248,0.104731 -0.03032,0.126779 -0.0083,0.09922 -0.03858,0.289388 -0.01378,0.04961 -0.07166,0.04961 -0.02756,0 -0.10473,-0.01102 -0.338998,-0.04961 -1.050065,-0.04961 -0.201193,0 -0.606336,0.01102 -0.405143,0.01103 -0.606336,0.01103 -0.09095,0 -0.09095,-0.07993 0,-0.30868 0.03307,-0.926041 0.03583,-0.620116 0.03583,-0.928797 0,-0.314192 -0.03307,-1.171331 -0.0055,-0.220486 -0.03032,-0.658702 l -0.0028,-0.03858 q -0.0028,-0.06339 0.07166,-0.06339 0.192925,0 0.578776,0.01103 0.38585,0.01102 0.578775,0.01102 0.184657,0 0.551215,-0.01102 0.369314,-0.01103 0.553971,-0.01103 0.129536,0 0.14056,0.07993 0.05788,0.363802 0.05788,0.451997 0,0.06339 -0.06063,0.06339 -0.234266,0 -0.711067,-0.0248 -0.474045,-0.02756 -0.713824,-0.02756 -0.225998,0 -0.286631,0.06063 -0.05788,0.06063 -0.05788,0.300412 v 0.410655 q 0,0.16812 0.0083,0.195681 0.02481,0.08544 0.143316,0.08544 0.03307,0 0.09371,-0.0028 0.06339,0 0.09371,0 0.540191,0 0.970138,-0.01929 0.168121,-0.0055 0.396875,-0.02756 0.05788,-0.0055 0.05788,0.04961 0,0.08819 -0.02205,0.270096 -0.01929,0.181901 -0.01929,0.272851 0,0.04961 -0.08268,0.04961 -0.03307,0 -0.24529,-0.01929 -0.15434,-0.01654 -0.694531,-0.01654 -0.454752,0 -0.57602,0.01103 -0.110242,0.0083 -0.126779,0.115755 0.0028,-0.01929 0.0028,0.212218 v 0.407899 q 0,0.286631 0.08819,0.358289 0.0689,0.05788 0.344509,0.05788 l 0.303168,-0.0028 q 0.192925,0 1.083137,-0.06615 l 0.04134,-0.0028 q 0.05512,-0.0055 0.05512,0.0689 z"
         id="path66" />
      <path
         d="m 69.630746,35.116166 q 0,0.03307 -0.06615,0.03307 -0.05237,0 -0.154341,-0.0083 -0.09922,-0.0083 -0.151584,-0.0083 -0.05236,0 -0.157096,0.0083 -0.104731,0.0083 -0.157096,0.0083 -0.07717,0 -0.198438,-0.416168 -0.118511,-0.418923 -0.242534,-0.424435 -0.101975,-0.0055 -0.531922,-0.0055 h -0.43546 q -0.454752,0 -0.518142,0.0055 -0.09922,0.0083 -0.212218,0.424435 -0.110243,0.416168 -0.170876,0.416168 h -0.620117 q -0.05512,0 -0.05512,-0.03859 0,-0.02756 0.03858,-0.124024 l 0.675239,-1.84657 q 0.08544,-0.223242 0.518142,-1.287086 0.07717,-0.176389 0.209461,-0.531923 0.03307,-0.10473 0.07166,-0.10473 0.05237,0 0.15434,0.01378 0.101975,0.01378 0.15434,0.01378 0.04961,0 0.148828,-0.01378 0.101975,-0.01654 0.148829,-0.01654 0.0248,0 0.0689,0.101975 0.06615,0.15434 0.65319,1.661913 0.829578,2.119421 0.829578,2.138714 z m -1.28433,-1.521353 q 0,-0.07993 -0.248047,-0.71658 -0.239778,-0.61736 -0.338997,-0.810285 -0.570507,1.455207 -0.570507,1.524109 0,0.09371 0.209461,0.110243 0.01102,0.0028 0.270095,0.0028 h 0.283876 q 0.394119,0 0.394119,-0.110243 z"
         id="path68" />
      <path
         d="m 72.541161,34.55117 q 0,0.385851 -0.04134,0.548459 -0.01929,0.07993 -0.09646,0.07993 -0.203949,0 -0.611848,-0.0248 -0.407899,-0.02205 -0.611849,-0.02205 -0.192925,0 -0.576019,0.0083 -0.383095,0.0083 -0.57602,0.0083 -0.0689,0 -0.0689,-0.0689 0,-0.300412 0.01929,-0.906749 0.02205,-0.606336 0.02205,-0.909504 0,-0.319705 -0.03032,-0.956358 -0.02756,-0.639409 -0.02756,-0.959114 0,-0.06063 0.0689,-0.06063 0.04961,0 0.151584,0.0083 0.101974,0.0083 0.15434,0.0083 0.04961,0 0.15434,-0.0083 0.104731,-0.0083 0.15434,-0.0083 0.06615,0 0.06615,0.05237 0,0.292144 -0.02205,0.879188 -0.02205,0.587043 -0.02205,0.881943 0,0.143316 0,0.43546 -0.0028,0.292144 -0.0028,0.43546 0,0.611848 0.04961,0.611848 1.016991,0 1.535133,-0.04961 0.02481,-0.0028 0.12678,-0.01929 0.08268,-0.01654 0.126779,-0.01654 0.05788,0 0.05788,0.05237 z"
         id="path70" />
      <path
         d="m 74.602704,33.159353 -0.0028,0.0248 q -0.02481,0.09646 -0.06615,0.283875 -0.0083,0.09095 -0.03583,0.264583 -0.0055,0.02481 -0.157096,0.03307 -0.104731,0.0055 -0.297656,0 -0.248047,-0.0055 -0.231511,-0.0055 -0.170876,0 -0.507117,0.03307 -0.336241,0.03032 -0.504362,0.03032 -0.07441,0 -0.07441,-0.09095 0,-0.126779 0.159852,-0.52641 0.01378,-0.03859 0.07717,-0.03859 0.09646,0 0.283875,0.0083 0.187413,0.0055 0.283876,0.0055 0.16812,0 0.507118,-0.03307 0.338997,-0.03583 0.507117,-0.03583 0.06063,0 0.05788,0.04685 z"
         id="path72" />
      <path
         d="m 77.604069,31.803364 q 0,0.07166 -0.04961,0.07166 -0.07717,0 -0.97565,-0.03307 -0.02481,0.840603 -0.02481,1.347721 0,0.316948 0.02205,0.950845 0.02481,0.633897 0.02481,0.950846 0,0.05788 -0.07993,0.05788 -0.04961,0 -0.151584,-0.0083 -0.101974,-0.0083 -0.15434,-0.0083 -0.04961,0 -0.151584,0.0083 -0.101975,0.0083 -0.151584,0.0083 -0.0689,0 -0.0689,-0.0689 0,-0.314193 0.02481,-0.942578 0.02756,-0.631141 0.02756,-0.948089 0,-0.490581 -0.03032,-1.347721 -0.711068,0.0441 -1.041796,0.0441 -0.03307,0 -0.03307,-0.02756 0,-0.04961 0.0248,-0.143316 0.03032,-0.121267 0.03583,-0.143316 0.0055,-0.09646 0.03858,-0.267339 0.01378,-0.03583 0.04685,-0.03583 l 0.03307,0.0028 q 0.97565,0.05788 1.287086,0.05788 0.275608,0 0.901237,-0.04134 0.427191,-0.02756 0.355533,-0.02756 0.07166,0 0.07993,0.04961 -0.0055,-0.03032 -0.0055,0.267339 0,0.03583 0.0083,0.112999 0.0083,0.07441 0.0083,0.112999 z"
         id="path74" />
      <path
         d="m 78.695475,35.091361 q 0,0.05788 -0.07993,0.05788 -0.04961,0 -0.151584,-0.0083 -0.101975,-0.0083 -0.151584,-0.0083 -0.05237,0 -0.154341,0.0083 -0.101974,0.0083 -0.151584,0.0083 -0.0689,0 -0.0689,-0.06339 0,-0.314193 0.02756,-0.945334 0.03032,-0.633897 0.03032,-0.950845 0,-0.305924 -0.03032,-0.917773 -0.02756,-0.614605 -0.02756,-0.920529 0,-0.0689 0.06339,-0.0689 0.05237,0 0.159853,0.0083 0.107486,0.0083 0.162608,0.0083 0.04961,0 0.148828,-0.0083 0.09922,-0.0083 0.148828,-0.0083 0.07166,0 0.07166,0.05512 0,0.30868 -0.02205,0.926041 -0.02205,0.61736 -0.02205,0.926041 0,0.316948 0.02205,0.950845 0.02481,0.633897 0.02481,0.950846 z"
         id="path76" />
      <path
         d="m 83.14929,35.080337 q 0,0.0689 -0.0689,0.0689 -0.04961,0 -0.151584,-0.0083 -0.09922,-0.0083 -0.148828,-0.0083 -0.04961,0 -0.151584,0.0083 -0.101975,0.0083 -0.151584,0.0083 -0.0689,0 -0.0689,-0.09095 0,-0.350021 0.02205,-1.050064 0.02205,-0.700043 0.02205,-1.050064 0,-0.05237 -0.02205,-0.05237 -0.0248,0 -0.03858,0.03032 -0.14056,0.300412 -0.664214,1.604035 -0.08544,0.250803 -0.24529,0.625629 -0.01929,0.03583 -0.198438,0.03583 -0.259071,0 -0.286631,-0.04685 -0.09371,-0.223242 -0.26734,-0.625629 -0.228754,-0.545703 -0.702798,-1.626084 -0.0083,-0.01929 -0.03583,-0.03859 -0.02205,0.01654 -0.02205,0.06063 0,0.355533 0.01102,1.0666 0.01378,0.711068 0.01378,1.066601 0,0.09095 -0.0689,0.09095 -0.04685,0 -0.143316,-0.0083 -0.09646,-0.0083 -0.143316,-0.0083 -0.04961,0 -0.148828,0.0083 -0.09646,0.0083 -0.146072,0.0083 -0.0689,0 -0.0689,-0.05237 0,-0.305924 0.02756,-0.915016 0.03032,-0.611849 0.03032,-0.917773 0,-0.316949 -0.03032,-0.950846 -0.02756,-0.636653 -0.02756,-0.953602 0,-0.05236 0.06339,-0.06063 0.374826,-0.04961 0.564995,-0.04961 0.02756,0 0.07717,0.112999 0.66697,1.466232 1.146527,2.618271 0.112999,0.270095 0.135048,0.270095 0.02756,0 0.118511,-0.220486 0.374826,-0.892968 1.03904,-2.651343 0.04134,-0.107487 0.09095,-0.107487 0.09371,0 0.28112,0.01102 0.190169,0.01103 0.283876,0.01103 0.0689,0 0.0689,0.06614 0,0.316949 -0.02205,0.953602 -0.01929,0.633897 -0.01929,0.950846 0,0.303168 0.02205,0.909504 0.0248,0.606337 0.0248,0.906749 z"
         id="path78" />
      <path
         d="m 86.343581,34.595268 q 0,0.0441 -0.02205,0.126779 -0.02481,0.104731 -0.03032,0.126779 -0.0083,0.09922 -0.03859,0.289388 -0.01378,0.04961 -0.07166,0.04961 -0.02756,0 -0.104731,-0.01102 -0.338997,-0.04961 -1.050064,-0.04961 -0.201194,0 -0.606337,0.01102 -0.405143,0.01103 -0.606336,0.01103 -0.09095,0 -0.09095,-0.07993 0,-0.30868 0.03307,-0.926041 0.03583,-0.620116 0.03583,-0.928797 0,-0.314192 -0.03307,-1.171331 -0.0055,-0.220486 -0.03032,-0.658702 l -0.0028,-0.03858 q -0.0028,-0.06339 0.07166,-0.06339 0.192925,0 0.578775,0.01103 0.385851,0.01102 0.578776,0.01102 0.184657,0 0.551215,-0.01102 0.369314,-0.01103 0.553971,-0.01103 0.129535,0 0.140559,0.07993 0.05788,0.363802 0.05788,0.451997 0,0.06339 -0.06063,0.06339 -0.234266,0 -0.711067,-0.0248 -0.474045,-0.02756 -0.713823,-0.02756 -0.225998,0 -0.286632,0.06063 -0.05788,0.06063 -0.05788,0.300412 v 0.410655 q 0,0.16812 0.0083,0.195681 0.0248,0.08544 0.143316,0.08544 0.03307,0 0.09371,-0.0028 0.06339,0 0.09371,0 0.54019,0 0.970138,-0.01929 0.16812,-0.0055 0.396875,-0.02756 0.05788,-0.0055 0.05788,0.04961 0,0.08819 -0.02205,0.270096 -0.01929,0.181901 -0.01929,0.272851 0,0.04961 -0.08268,0.04961 -0.03307,0 -0.245291,-0.01929 -0.15434,-0.01654 -0.694531,-0.01654 -0.454752,0 -0.576019,0.01103 -0.110243,0.0083 -0.12678,0.115755 0.0028,-0.01929 0.0028,0.212218 v 0.407899 q 0,0.286631 0.08819,0.358289 0.0689,0.05788 0.344509,0.05788 l 0.303168,-0.0028 q 0.192926,0 1.083138,-0.06615 l 0.04134,-0.0028 q 0.05512,-0.0055 0.05512,0.0689 z"
         id="path80" />
      <path
         d="m 91.219076,32.660503 q 0,0.115756 -0.540191,1.135503 -0.341753,0.636653 -0.683506,1.273306 -0.04134,0.07993 -0.09095,0.07993 h -0.55397 q -0.03858,0 -0.07717,-0.07993 -0.0083,-0.01654 -0.655945,-1.234721 -0.553971,-1.044552 -0.553971,-1.141015 0,-0.217729 0.01378,-0.653189 0.01654,-0.438216 0.01654,-0.655946 0,-0.101975 0.06615,-0.101975 0.05237,0 0.151585,0.0083 0.101974,0.0083 0.15434,0.0083 0.04961,0 0.151584,-0.0083 0.101975,-0.0083 0.151584,-0.0083 0.06339,0 0.06339,0.05237 0,0.223242 -0.03032,0.672482 -0.02756,0.44924 -0.02756,0.675238 0,0.187413 0.854383,1.670181 0.225998,-0.38585 0.490581,-0.8847 0.383095,-0.722091 0.383095,-0.848871 0,-0.214973 -0.01378,-0.642165 -0.01378,-0.427191 -0.01378,-0.639409 0,-0.05512 0.06063,-0.05512 0.05236,0 0.15434,0.0083 0.101974,0.0083 0.151584,0.0083 0.04961,0 0.148828,-0.0083 0.101975,-0.0083 0.151584,-0.0083 0.06063,0 0.0689,0.05237 -0.0028,-0.01929 -0.0028,0.104731 0,0.203949 0.0055,0.611848 0.0055,0.405143 0.0055,0.609092 z"
         id="path82" />
      <path
         d="m 92.434504,35.091361 q 0,0.05788 -0.07993,0.05788 -0.04961,0 -0.151584,-0.0083 -0.101975,-0.0083 -0.151584,-0.0083 -0.05237,0 -0.154341,0.0083 -0.101974,0.0083 -0.151584,0.0083 -0.0689,0 -0.0689,-0.06339 0,-0.314193 0.02756,-0.945334 0.03032,-0.633897 0.03032,-0.950845 0,-0.305924 -0.03032,-0.917773 -0.02756,-0.614605 -0.02756,-0.920529 0,-0.0689 0.06339,-0.0689 0.05237,0 0.159852,0.0083 0.107487,0.0083 0.162609,0.0083 0.04961,0 0.148828,-0.0083 0.09922,-0.0083 0.148828,-0.0083 0.07166,0 0.07166,0.05512 0,0.30868 -0.02205,0.926041 -0.02205,0.61736 -0.02205,0.926041 0,0.316948 0.02205,0.950845 0.02481,0.633897 0.02481,0.950846 z"
         id="path84" />
      <path
         d="m 96.406006,33.195182 q 0,0.774457 -0.440972,1.339452 -0.479557,0.614605 -1.229209,0.614605 -0.143316,0 -0.432704,-0.01103 -0.286632,-0.01102 -0.429948,-0.01102 -0.129535,0 -0.391362,0.01102 -0.259071,0.01103 -0.388607,0.01103 -0.0689,0 -0.0689,-0.0689 0,-0.300412 0.02205,-0.906749 0.02481,-0.606336 0.02481,-0.909504 0,-0.319705 -0.02205,-0.96187 -0.02205,-0.642165 -0.02205,-0.96187 0,-0.05788 0.07166,-0.05788 0.101975,0 0.303169,0.0028 0.203949,0.0028 0.305924,0.0028 0.09371,0 0.286632,-0.0028 0.192925,-0.0028 0.292143,-0.0028 0.956358,0 1.424891,0.361046 0.336241,0.259071 0.520898,0.697287 0.173633,0.407899 0.173633,0.854383 z m -0.675239,0 q 0,-0.595312 -0.338997,-0.970138 -0.352777,-0.388607 -0.942577,-0.388607 -0.487825,0 -0.394119,-0.0055 -0.32246,0.01654 -0.32246,0.118511 0,0.212218 -0.01103,0.636653 -0.0083,0.42168 -0.0083,0.633898 0,0.209461 0.0083,0.628385 0.01103,0.418923 0.01103,0.628384 0,0.104731 0.330728,0.121268 -0.0441,-0.0028 0.402387,-0.0028 0.316949,0 0.504362,-0.06615 0.23151,-0.08268 0.416167,-0.305924 0.344509,-0.418924 0.344509,-1.028016 z"
         id="path86" />
      <path
         d="m 99.462495,34.595268 q 0,0.0441 -0.02205,0.126779 -0.0248,0.104731 -0.03032,0.126779 -0.0083,0.09922 -0.03858,0.289388 -0.01378,0.04961 -0.07166,0.04961 -0.02756,0 -0.10473,-0.01102 -0.338998,-0.04961 -1.050065,-0.04961 -0.201193,0 -0.606336,0.01102 -0.405143,0.01103 -0.606336,0.01103 -0.09095,0 -0.09095,-0.07993 0,-0.30868 0.03307,-0.926041 0.03583,-0.620116 0.03583,-0.928797 0,-0.314192 -0.03307,-1.171331 -0.0055,-0.220486 -0.03032,-0.658702 l -0.0028,-0.03858 q -0.0028,-0.06339 0.07166,-0.06339 0.192925,0 0.578776,0.01103 0.38585,0.01102 0.578775,0.01102 0.184657,0 0.551215,-0.01102 0.369314,-0.01103 0.553971,-0.01103 0.129536,0 0.14056,0.07993 0.05788,0.363802 0.05788,0.451997 0,0.06339 -0.06063,0.06339 -0.234266,0 -0.711067,-0.0248 -0.474045,-0.02756 -0.713824,-0.02756 -0.225998,0 -0.286631,0.06063 -0.05788,0.06063 -0.05788,0.300412 v 0.410655 q 0,0.16812 0.0083,0.195681 0.02481,0.08544 0.143316,0.08544 0.03307,0 0.09371,-0.0028 0.06339,0 0.09371,0 0.540191,0 0.970138,-0.01929 0.168121,-0.0055 0.396875,-0.02756 0.05788,-0.0055 0.05788,0.04961 0,0.08819 -0.02205,0.270096 -0.01929,0.181901 -0.01929,0.272851 0,0.04961 -0.08268,0.04961 -0.03307,0 -0.24529,-0.01929 -0.15434,-0.01654 -0.694531,-0.01654 -0.454752,0 -0.576019,0.01103 -0.110243,0.0083 -0.12678,0.115755 0.0028,-0.01929 0.0028,0.212218 v 0.407899 q 0,0.286631 0.08819,0.358289 0.0689,0.05788 0.344509,0.05788 l 0.303168,-0.0028 q 0.192925,0 1.083137,-0.06615 l 0.04134,-0.0028 q 0.05512,-0.0055 0.05512,0.0689 z"
         id="path88" />
      <path
         d="m 103.53046,33.214474 q 0,0.818554 -0.52365,1.408354 -0.54571,0.611849 -1.35599,0.611849 -0.81304,0 -1.35599,-0.609093 -0.523655,-0.587043 -0.523655,-1.41111 0,-0.815798 0.529165,-1.408354 0.5457,-0.614604 1.35048,-0.614604 0.80753,0 1.35323,0.614604 0.52641,0.5898 0.52641,1.408354 z m -0.66421,-0.0083 q 0,-0.54019 -0.33625,-0.939821 -0.35277,-0.424436 -0.88469,-0.424436 -0.52642,0 -0.87644,0.429948 -0.33073,0.402387 -0.33073,0.942577 0,0.537435 0.33073,0.939822 0.35002,0.429947 0.87644,0.429947 0.53467,0 0.88745,-0.429947 0.33349,-0.402387 0.33349,-0.94809 z"
         id="path90" />
      <path
         d="m 107.60118,31.56083 q -0.0551,0.09095 -0.15158,0.275607 -0.0303,0.08544 -0.10749,0.242535 -0.0165,0.0248 -0.0441,0.0248 0.003,0 -0.26734,-0.09646 -0.26734,-0.09922 -0.44097,-0.09922 -0.50712,0 -0.50712,0.446484 0,0.248047 0.35554,0.432704 0.59807,0.311436 0.66146,0.35829 0.35553,0.283875 0.35553,0.766188 0,0.617361 -0.48783,0.972894 -0.43821,0.319705 -1.07762,0.319705 -0.29766,0 -0.31971,-0.06615 -0.011,-0.104731 -0.0496,-0.305924 -0.022,-0.08268 -0.0689,-0.248047 -0.008,-0.0248 -0.008,-0.04685 0,-0.03859 0.0414,-0.03859 0.0661,0 0.20119,0.01378 0.1378,0.01378 0.2067,0.01378 0.85439,0 0.85439,-0.551215 0,-0.270095 -0.34451,-0.468533 -0.62839,-0.358289 -0.64217,-0.37207 -0.34726,-0.281119 -0.34726,-0.755164 0,-0.51263 0.33624,-0.82131 0.32797,-0.297656 0.84887,-0.297656 0.22049,0 0.50712,0.07166 0.31143,0.07993 0.46853,0.192925 0.0138,0.01102 0.0276,0.03583 z"
         id="path92" />
      <path
         d="m 110.59152,31.803364 q 0,0.07166 -0.0496,0.07166 -0.0772,0 -0.97565,-0.03307 -0.0248,0.840603 -0.0248,1.347721 0,0.316948 0.022,0.950845 0.0248,0.633897 0.0248,0.950846 0,0.05788 -0.0799,0.05788 -0.0496,0 -0.15158,-0.0083 -0.10197,-0.0083 -0.15434,-0.0083 -0.0496,0 -0.15158,0.0083 -0.10198,0.0083 -0.15159,0.0083 -0.0689,0 -0.0689,-0.0689 0,-0.314193 0.0248,-0.942578 0.0276,-0.631141 0.0276,-0.948089 0,-0.490581 -0.0303,-1.347721 -0.71107,0.0441 -1.0418,0.0441 -0.0331,0 -0.0331,-0.02756 0,-0.04961 0.0248,-0.143316 0.0303,-0.121267 0.0358,-0.143316 0.006,-0.09646 0.0386,-0.267339 0.0138,-0.03583 0.0469,-0.03583 l 0.0331,0.0028 q 0.97566,0.05788 1.28709,0.05788 0.27561,0 0.90124,-0.04134 0.42719,-0.02756 0.35553,-0.02756 0.0717,0 0.0799,0.04961 -0.006,-0.03032 -0.006,0.267339 0,0.03583 0.008,0.112999 0.008,0.07441 0.008,0.112999 z"
         id="path94" />
      <path
         d="m 113.90432,35.12719 q 0,0.02205 -0.0441,0.02205 -0.0524,0 -0.15986,-0.0083 -0.10748,-0.0083 -0.15985,-0.0083 -0.0579,0 -0.17363,0.0083 -0.113,0.0083 -0.17088,0.0083 -0.0634,0 -0.0965,-0.0689 -0.0882,-0.187413 -0.50161,-1.160308 -0.0413,-0.09922 -0.20119,-0.121267 -0.0358,-0.0028 -0.2508,-0.0028 -0.38034,0 -0.452,0.01102 -0.0579,0.0083 -0.0579,0.14056 0,0.192925 0.0165,0.578776 0.0193,0.383094 0.0193,0.573263 0,0.05788 -0.0551,0.05788 -0.0551,0 -0.16812,-0.01102 -0.11024,-0.01378 -0.16812,-0.01378 -0.0469,0 -0.14332,0.0083 -0.0965,0.0083 -0.14331,0.0083 -0.0689,0 -0.0689,-0.06339 0,-0.305924 0.0276,-0.917773 0.0303,-0.614604 0.0303,-0.920529 0,-0.870919 -0.0634,-1.857594 l -0.003,-0.0441 q -0.003,-0.05512 0.11575,-0.05512 0.23703,0 0.70831,-0.01103 0.47405,-0.01378 0.70832,-0.01378 0.61184,0 0.98116,0.292144 0.4079,0.32246 0.4079,0.915016 0,0.407899 -0.11025,0.642166 -0.11575,0.248046 -0.42994,0.471288 -0.0524,0.03583 -0.0524,0.0689 0,0.03859 0.32797,0.733116 0.33073,0.694531 0.33073,0.738628 z m -0.75516,-2.499759 q 0,-0.49885 -0.28663,-0.66697 -0.21222,-0.124024 -0.76344,-0.124024 -0.44648,0 -0.45475,0.07166 -0.0193,0.148828 -0.0193,0.796506 v 0.52641 q 0.008,0.0055 0.0358,0.01102 0.0496,0.0055 0.16261,0.01378 0.26182,0.01378 0.56499,0.01378 0.76068,0 0.76068,-0.642165 z"
         id="path96" />
      <path
         d="m 116.88915,34.595268 q 0,0.0441 -0.0221,0.126779 -0.0248,0.104731 -0.0303,0.126779 -0.008,0.09922 -0.0386,0.289388 -0.0138,0.04961 -0.0716,0.04961 -0.0276,0 -0.10474,-0.01102 -0.33899,-0.04961 -1.05006,-0.04961 -0.20119,0 -0.60634,0.01102 -0.40514,0.01103 -0.60633,0.01103 -0.091,0 -0.091,-0.07993 0,-0.30868 0.0331,-0.926041 0.0358,-0.620116 0.0358,-0.928797 0,-0.314192 -0.0331,-1.171331 -0.006,-0.220486 -0.0303,-0.658702 l -0.003,-0.03858 q -0.003,-0.06339 0.0717,-0.06339 0.19293,0 0.57878,0.01103 0.38585,0.01102 0.57877,0.01102 0.18466,0 0.55122,-0.01102 0.36931,-0.01103 0.55397,-0.01103 0.12953,0 0.14056,0.07993 0.0579,0.363802 0.0579,0.451997 0,0.06339 -0.0606,0.06339 -0.23426,0 -0.71107,-0.0248 -0.47404,-0.02756 -0.71382,-0.02756 -0.226,0 -0.28663,0.06063 -0.0579,0.06063 -0.0579,0.300412 v 0.410655 q 0,0.16812 0.008,0.195681 0.0248,0.08544 0.14332,0.08544 0.0331,0 0.0937,-0.0028 0.0634,0 0.0937,0 0.54019,0 0.97014,-0.01929 0.16812,-0.0055 0.39687,-0.02756 0.0579,-0.0055 0.0579,0.04961 0,0.08819 -0.0221,0.270096 -0.0193,0.181901 -0.0193,0.272851 0,0.04961 -0.0827,0.04961 -0.0331,0 -0.24529,-0.01929 -0.15434,-0.01654 -0.69454,-0.01654 -0.45475,0 -0.57601,0.01103 -0.11025,0.0083 -0.12678,0.115755 0.003,-0.01929 0.003,0.212218 v 0.407899 q 0,0.286631 0.0882,0.358289 0.0689,0.05788 0.34451,0.05788 l 0.30316,-0.0028 q 0.19293,0 1.08314,-0.06615 l 0.0413,-0.0028 q 0.0551,-0.0055 0.0551,0.0689 z"
         id="path98" />
      <path
         d="m 120.72561,35.116166 q 0,0.03307 -0.0662,0.03307 -0.0524,0 -0.15434,-0.0083 -0.0992,-0.0083 -0.15158,-0.0083 -0.0524,0 -0.1571,0.0083 -0.10473,0.0083 -0.15709,0.0083 -0.0772,0 -0.19844,-0.416168 -0.11851,-0.418923 -0.24254,-0.424435 -0.10197,-0.0055 -0.53192,-0.0055 h -0.43546 q -0.45475,0 -0.51814,0.0055 -0.0992,0.0083 -0.21222,0.424435 -0.11024,0.416168 -0.17087,0.416168 h -0.62012 q -0.0551,0 -0.0551,-0.03859 0,-0.02756 0.0386,-0.124024 l 0.67524,-1.84657 q 0.0854,-0.223242 0.51814,-1.287086 0.0772,-0.176389 0.20946,-0.531923 0.0331,-0.10473 0.0717,-0.10473 0.0524,0 0.15434,0.01378 0.10198,0.01378 0.15434,0.01378 0.0496,0 0.14883,-0.01378 0.10198,-0.01654 0.14883,-0.01654 0.0248,0 0.0689,0.101975 0.0661,0.15434 0.65319,1.661913 0.82958,2.119421 0.82958,2.138714 z m -1.28433,-1.521353 q 0,-0.07993 -0.24805,-0.71658 -0.23978,-0.61736 -0.339,-0.810285 -0.5705,1.455207 -0.5705,1.524109 0,0.09371 0.20946,0.110243 0.011,0.0028 0.27009,0.0028 h 0.28388 q 0.39412,0 0.39412,-0.110243 z"
         id="path100" />
      <path
         d="m 124.91208,35.080337 q 0,0.0689 -0.0689,0.0689 -0.0496,0 -0.15158,-0.0083 -0.0992,-0.0083 -0.14883,-0.0083 -0.0496,0 -0.15158,0.0083 -0.10198,0.0083 -0.15159,0.0083 -0.0689,0 -0.0689,-0.09095 0,-0.350021 0.0221,-1.050064 0.022,-0.700043 0.022,-1.050064 0,-0.05237 -0.022,-0.05237 -0.0248,0 -0.0386,0.03032 -0.14056,0.300412 -0.66421,1.604035 -0.0854,0.250803 -0.24529,0.625629 -0.0193,0.03583 -0.19844,0.03583 -0.25907,0 -0.28663,-0.04685 -0.0937,-0.223242 -0.26734,-0.625629 -0.22875,-0.545703 -0.7028,-1.626084 -0.008,-0.01929 -0.0358,-0.03859 -0.022,0.01654 -0.022,0.06063 0,0.355533 0.011,1.0666 0.0138,0.711068 0.0138,1.066601 0,0.09095 -0.0689,0.09095 -0.0469,0 -0.14332,-0.0083 -0.0965,-0.0083 -0.14331,-0.0083 -0.0496,0 -0.14883,0.0083 -0.0965,0.0083 -0.14607,0.0083 -0.0689,0 -0.0689,-0.05237 0,-0.305924 0.0276,-0.915016 0.0303,-0.611849 0.0303,-0.917773 0,-0.316949 -0.0303,-0.950846 -0.0276,-0.636653 -0.0276,-0.953602 0,-0.05236 0.0634,-0.06063 0.37483,-0.04961 0.565,-0.04961 0.0276,0 0.0772,0.112999 0.66697,1.466232 1.14653,2.618271 0.11299,0.270095 0.13504,0.270095 0.0276,0 0.11851,-0.220486 0.37483,-0.892968 1.03904,-2.651343 0.0414,-0.107487 0.091,-0.107487 0.0937,0 0.28112,0.01102 0.19017,0.01103 0.28388,0.01103 0.0689,0 0.0689,0.06614 0,0.316949 -0.0221,0.953602 -0.0193,0.633897 -0.0193,0.950846 0,0.303168 0.0221,0.909504 0.0248,0.606337 0.0248,0.906749 z"
         id="path102" />
      <path
         d="m 126.2543,35.091361 q 0,0.05788 -0.0799,0.05788 -0.0496,0 -0.15158,-0.0083 -0.10198,-0.0083 -0.15159,-0.0083 -0.0524,0 -0.15434,0.0083 -0.10197,0.0083 -0.15158,0.0083 -0.0689,0 -0.0689,-0.06339 0,-0.314193 0.0276,-0.945334 0.0303,-0.633897 0.0303,-0.950845 0,-0.305924 -0.0303,-0.917773 -0.0276,-0.614605 -0.0276,-0.920529 0,-0.0689 0.0634,-0.0689 0.0524,0 0.15986,0.0083 0.10748,0.0083 0.16261,0.0083 0.0496,0 0.14882,-0.0083 0.0992,-0.0083 0.14883,-0.0083 0.0717,0 0.0717,0.05512 0,0.30868 -0.0221,0.926041 -0.022,0.61736 -0.022,0.926041 0,0.316948 0.022,0.950845 0.0248,0.633897 0.0248,0.950846 z"
         id="path104" />
      <path
         d="m 130.30021,31.3431 q 0,0.316949 -0.022,0.956358 -0.0221,0.639409 -0.0221,0.959114 0,0.300412 0.006,0.901236 0.006,0.598068 0.006,0.89848 0,0.09095 -0.0689,0.09095 -0.0413,0 -0.12402,-0.0083 -0.0827,-0.0083 -0.12402,-0.0083 -0.0441,0 -0.13505,0.0083 -0.091,0.0083 -0.13505,0.0083 -0.0496,0 -0.11851,-0.09095 -0.59531,-0.802017 -1.80523,-2.392272 -0.18741,-0.242535 -0.21773,-0.270096 -0.0276,0 -0.0276,0.112999 0,0.424436 0.0138,1.276063 0.0138,0.848871 0.0138,1.273306 0,0.09095 -0.0551,0.09095 -0.0469,0 -0.14331,-0.0083 -0.0965,-0.0083 -0.14332,-0.0083 -0.0496,0 -0.14883,0.0083 -0.0965,0.0083 -0.14607,0.0083 -0.0689,0 -0.0689,-0.05512 0,-0.303168 0.0276,-0.91226 0.0303,-0.611849 0.0303,-0.917773 0,-0.333485 -0.0248,-1.201649 -0.006,-0.225998 -0.0276,-0.677994 l -0.003,-0.03583 q -0.003,-0.04134 0.0662,-0.0441 0.17914,-0.0028 0.28112,-0.01102 0.0386,-0.0028 0.14607,-0.02205 0.0909,-0.01654 0.14332,-0.01654 0.0248,0 0.0854,0.07993 0.63389,0.870919 1.94027,2.59071 0.0579,0.07166 0.10749,0.124023 0.0193,-0.115755 0.0193,-0.529166 0,-0.35829 -0.0276,-1.074869 -0.0248,-0.71658 -0.0248,-1.072113 0,-0.09095 0.0551,-0.09095 0.0496,0 0.14883,0.0083 0.10197,0.0083 0.15158,0.0083 0.0524,0 0.1571,-0.0083 0.10473,-0.0083 0.15709,-0.0083 0.0579,0 0.0579,0.06063 z"
         id="path106" />
      <path
         d="m 134.25793,35.014191 q 0.006,0.06063 -0.0689,0.06063 -0.0413,0 -0.20119,-0.07717 -0.1571,-0.07993 -0.2012,-0.112999 -0.50711,0.34451 -1.20164,0.34451 -0.81029,0 -1.33394,-0.606337 -0.4961,-0.573263 -0.4961,-1.397329 0,-0.843359 0.48783,-1.416622 0.51538,-0.606337 1.34221,-0.606337 0.42443,0 0.81579,0.201194 0.39412,0.198437 0.62839,0.545702 0.0358,0.05237 0.0358,0.07993 0,0.03859 -0.19844,0.256315 -0.19568,0.214974 -0.226,0.214974 -0.0221,0 -0.16812,-0.16812 -0.17639,-0.20395 -0.33624,-0.311437 -0.2508,-0.16812 -0.52365,-0.16812 -0.5209,0 -0.85439,0.435459 -0.30316,0.396875 -0.30316,0.937066 0,0.52641 0.31143,0.931553 0.339,0.438216 0.85163,0.438216 0.50436,0 0.92604,-0.275608 -0.006,-0.07441 -0.0468,-0.523654 -0.0331,-0.319705 -0.0331,-0.520898 0,-0.04685 0.0606,-0.04685 0.0524,0 0.15709,0.0083 0.10473,0.0055 0.1571,0.0055 0.0524,0 0.15985,-0.0055 0.10749,-0.0055 0.15985,-0.0055 0.0579,0 0.0579,0.08819 0,0.09646 -0.008,0.292144 -0.006,0.192925 -0.006,0.289388 0,0.396875 0.0524,1.074869 z"
         id="path108" />
      <path
         d="m 138.7145,34.595268 q 0,0.0441 -0.022,0.126779 -0.0248,0.104731 -0.0303,0.126779 -0.008,0.09922 -0.0386,0.289388 -0.0138,0.04961 -0.0717,0.04961 -0.0276,0 -0.10473,-0.01102 -0.33899,-0.04961 -1.05006,-0.04961 -0.2012,0 -0.60634,0.01102 -0.40514,0.01103 -0.60633,0.01103 -0.091,0 -0.091,-0.07993 0,-0.30868 0.0331,-0.926041 0.0358,-0.620116 0.0358,-0.928797 0,-0.314192 -0.0331,-1.171331 -0.006,-0.220486 -0.0303,-0.658702 l -0.003,-0.03858 q -0.003,-0.06339 0.0717,-0.06339 0.19292,0 0.57877,0.01103 0.38585,0.01102 0.57878,0.01102 0.18466,0 0.55121,-0.01102 0.36932,-0.01103 0.55398,-0.01103 0.12953,0 0.14056,0.07993 0.0579,0.363802 0.0579,0.451997 0,0.06339 -0.0606,0.06339 -0.23427,0 -0.71107,-0.0248 -0.47404,-0.02756 -0.71382,-0.02756 -0.226,0 -0.28663,0.06063 -0.0579,0.06063 -0.0579,0.300412 v 0.410655 q 0,0.16812 0.008,0.195681 0.0248,0.08544 0.14331,0.08544 0.0331,0 0.0937,-0.0028 0.0634,0 0.0937,0 0.54019,0 0.97014,-0.01929 0.16812,-0.0055 0.39687,-0.02756 0.0579,-0.0055 0.0579,0.04961 0,0.08819 -0.022,0.270096 -0.0193,0.181901 -0.0193,0.272851 0,0.04961 -0.0827,0.04961 -0.0331,0 -0.24529,-0.01929 -0.15434,-0.01654 -0.69453,-0.01654 -0.45475,0 -0.57602,0.01103 -0.11024,0.0083 -0.12678,0.115755 0.003,-0.01929 0.003,0.212218 v 0.407899 q 0,0.286631 0.0882,0.358289 0.0689,0.05788 0.34451,0.05788 l 0.30317,-0.0028 q 0.19293,0 1.08314,-0.06615 l 0.0413,-0.0028 q 0.0551,-0.0055 0.0551,0.0689 z"
         id="path110" />
      <path
         d="m 142.60883,31.3431 q 0,0.316949 -0.022,0.956358 -0.0221,0.639409 -0.0221,0.959114 0,0.300412 0.006,0.901236 0.006,0.598068 0.006,0.89848 0,0.09095 -0.0689,0.09095 -0.0413,0 -0.12402,-0.0083 -0.0827,-0.0083 -0.12403,-0.0083 -0.0441,0 -0.13505,0.0083 -0.0909,0.0083 -0.13504,0.0083 -0.0496,0 -0.11851,-0.09095 -0.59532,-0.802017 -1.80523,-2.392272 -0.18742,-0.242535 -0.21773,-0.270096 -0.0276,0 -0.0276,0.112999 0,0.424436 0.0138,1.276063 0.0138,0.848871 0.0138,1.273306 0,0.09095 -0.0551,0.09095 -0.0469,0 -0.14332,-0.0083 -0.0965,-0.0083 -0.14332,-0.0083 -0.0496,0 -0.14882,0.0083 -0.0965,0.0083 -0.14608,0.0083 -0.0689,0 -0.0689,-0.05512 0,-0.303168 0.0276,-0.91226 0.0303,-0.611849 0.0303,-0.917773 0,-0.333485 -0.0248,-1.201649 -0.006,-0.225998 -0.0276,-0.677994 l -0.003,-0.03583 q -0.003,-0.04134 0.0661,-0.0441 0.17915,-0.0028 0.28112,-0.01102 0.0386,-0.0028 0.14608,-0.02205 0.0909,-0.01654 0.14331,-0.01654 0.0248,0 0.0854,0.07993 0.6339,0.870919 1.94028,2.59071 0.0579,0.07166 0.10748,0.124023 0.0193,-0.115755 0.0193,-0.529166 0,-0.35829 -0.0276,-1.074869 -0.0248,-0.71658 -0.0248,-1.072113 0,-0.09095 0.0551,-0.09095 0.0496,0 0.14883,0.0083 0.10197,0.0083 0.15158,0.0083 0.0524,0 0.1571,-0.0083 0.10473,-0.0083 0.1571,-0.0083 0.0579,0 0.0579,0.06063 z"
         id="path112" />
      <path
         d="m 146.56656,35.014191 q 0.006,0.06063 -0.0689,0.06063 -0.0413,0 -0.2012,-0.07717 -0.15709,-0.07993 -0.20119,-0.112999 -0.50712,0.34451 -1.20165,0.34451 -0.81029,0 -1.33394,-0.606337 -0.49609,-0.573263 -0.49609,-1.397329 0,-0.843359 0.48782,-1.416622 0.51539,-0.606337 1.34221,-0.606337 0.42444,0 0.8158,0.201194 0.39412,0.198437 0.62838,0.545702 0.0358,0.05237 0.0358,0.07993 0,0.03859 -0.19844,0.256315 -0.19568,0.214974 -0.22599,0.214974 -0.022,0 -0.16812,-0.16812 -0.17639,-0.20395 -0.33625,-0.311437 -0.2508,-0.16812 -0.52365,-0.16812 -0.5209,0 -0.85438,0.435459 -0.30317,0.396875 -0.30317,0.937066 0,0.52641 0.31144,0.931553 0.33899,0.438216 0.85162,0.438216 0.50436,0 0.92604,-0.275608 -0.006,-0.07441 -0.0469,-0.523654 -0.0331,-0.319705 -0.0331,-0.520898 0,-0.04685 0.0606,-0.04685 0.0524,0 0.1571,0.0083 0.10473,0.0055 0.15709,0.0055 0.0524,0 0.15986,-0.0055 0.10748,-0.0055 0.15985,-0.0055 0.0579,0 0.0579,0.08819 0,0.09646 -0.008,0.292144 -0.006,0.192925 -0.006,0.289388 0,0.396875 0.0524,1.074869 z"
         id="path114" />
      <path
         d="m 147.75994,35.091361 q 0,0.05788 -0.0799,0.05788 -0.0496,0 -0.15159,-0.0083 -0.10197,-0.0083 -0.15158,-0.0083 -0.0524,0 -0.15434,0.0083 -0.10198,0.0083 -0.15159,0.0083 -0.0689,0 -0.0689,-0.06339 0,-0.314193 0.0276,-0.945334 0.0303,-0.633897 0.0303,-0.950845 0,-0.305924 -0.0303,-0.917773 -0.0276,-0.614605 -0.0276,-0.920529 0,-0.0689 0.0634,-0.0689 0.0524,0 0.15985,0.0083 0.10749,0.0083 0.16261,0.0083 0.0496,0 0.14883,-0.0083 0.0992,-0.0083 0.14883,-0.0083 0.0717,0 0.0717,0.05512 0,0.30868 -0.0221,0.926041 -0.0221,0.61736 -0.0221,0.926041 0,0.316948 0.0221,0.950845 0.0248,0.633897 0.0248,0.950846 z"
         id="path116" />
      <path
         d="m 151.80586,31.3431 q 0,0.316949 -0.0221,0.956358 -0.022,0.639409 -0.022,0.959114 0,0.300412 0.006,0.901236 0.006,0.598068 0.006,0.89848 0,0.09095 -0.0689,0.09095 -0.0413,0 -0.12402,-0.0083 -0.0827,-0.0083 -0.12403,-0.0083 -0.0441,0 -0.13504,0.0083 -0.0909,0.0083 -0.13505,0.0083 -0.0496,0 -0.11851,-0.09095 -0.59531,-0.802017 -1.80523,-2.392272 -0.18741,-0.242535 -0.21773,-0.270096 -0.0276,0 -0.0276,0.112999 0,0.424436 0.0138,1.276063 0.0138,0.848871 0.0138,1.273306 0,0.09095 -0.0551,0.09095 -0.0469,0 -0.14332,-0.0083 -0.0965,-0.0083 -0.14331,-0.0083 -0.0496,0 -0.14883,0.0083 -0.0965,0.0083 -0.14607,0.0083 -0.0689,0 -0.0689,-0.05512 0,-0.303168 0.0276,-0.91226 0.0303,-0.611849 0.0303,-0.917773 0,-0.333485 -0.0248,-1.201649 -0.006,-0.225998 -0.0276,-0.677994 l -0.003,-0.03583 q -0.003,-0.04134 0.0662,-0.0441 0.17914,-0.0028 0.28112,-0.01102 0.0386,-0.0028 0.14607,-0.02205 0.0909,-0.01654 0.14331,-0.01654 0.0248,0 0.0854,0.07993 0.6339,0.870919 1.94028,2.59071 0.0579,0.07166 0.10748,0.124023 0.0193,-0.115755 0.0193,-0.529166 0,-0.35829 -0.0276,-1.074869 -0.0248,-0.71658 -0.0248,-1.072113 0,-0.09095 0.0551,-0.09095 0.0496,0 0.14883,0.0083 0.10198,0.0083 0.15159,0.0083 0.0524,0 0.15709,-0.0083 0.10473,-0.0083 0.1571,-0.0083 0.0579,0 0.0579,0.06063 z"
         id="path118" />
      <path
         d="m 155.00015,34.595268 q 0,0.0441 -0.022,0.126779 -0.0248,0.104731 -0.0303,0.126779 -0.008,0.09922 -0.0386,0.289388 -0.0138,0.04961 -0.0717,0.04961 -0.0276,0 -0.10473,-0.01102 -0.339,-0.04961 -1.05007,-0.04961 -0.20119,0 -0.60633,0.01102 -0.40515,0.01103 -0.60634,0.01103 -0.0909,0 -0.0909,-0.07993 0,-0.30868 0.0331,-0.926041 0.0358,-0.620116 0.0358,-0.928797 0,-0.314192 -0.0331,-1.171331 -0.006,-0.220486 -0.0303,-0.658702 l -0.003,-0.03858 q -0.003,-0.06339 0.0717,-0.06339 0.19293,0 0.57878,0.01103 0.38585,0.01102 0.57877,0.01102 0.18466,0 0.55122,-0.01102 0.36931,-0.01103 0.55397,-0.01103 0.12954,0 0.14056,0.07993 0.0579,0.363802 0.0579,0.451997 0,0.06339 -0.0606,0.06339 -0.23426,0 -0.71106,-0.0248 -0.47405,-0.02756 -0.71383,-0.02756 -0.22599,0 -0.28663,0.06063 -0.0579,0.06063 -0.0579,0.300412 v 0.410655 q 0,0.16812 0.008,0.195681 0.0248,0.08544 0.14332,0.08544 0.0331,0 0.0937,-0.0028 0.0634,0 0.0937,0 0.54019,0 0.97014,-0.01929 0.16812,-0.0055 0.39687,-0.02756 0.0579,-0.0055 0.0579,0.04961 0,0.08819 -0.022,0.270096 -0.0193,0.181901 -0.0193,0.272851 0,0.04961 -0.0827,0.04961 -0.0331,0 -0.24529,-0.01929 -0.15434,-0.01654 -0.69453,-0.01654 -0.45476,0 -0.57602,0.01103 -0.11025,0.0083 -0.12678,0.115755 0.003,-0.01929 0.003,0.212218 v 0.407899 q 0,0.286631 0.0882,0.358289 0.0689,0.05788 0.34451,0.05788 l 0.30317,-0.0028 q 0.19292,0 1.08313,-0.06615 l 0.0413,-0.0028 q 0.0551,-0.0055 0.0551,0.0689 z"
         id="path120" />
    </g>
  </g>
</svg>
